<?xml version="1.0" standalone="no"?>
<!DOCTYPE svg PUBLIC "-//W3C//DTD SVG 1.1//EN" "http://www.w3.org/Graphics/SVG/1.1/DTD/svg11.dtd" >
<svg>
<metadata>
Created by FontForge 20090914 at Tue Dec 15 03:30:56 2015
 By www-data
Amable is a 100% free typeface. Please use it!
</metadata>
<defs>
<font id="Amable-Sans" horiz-adv-x="550" >
  <font-face 
    font-family="Amable"
    font-weight="400"
    font-stretch="normal"
    units-per-em="1000"
    panose-1="0 0 0 0 0 0 0 0 0 0"
    ascent="800"
    descent="-200"
    x-height="499.999"
    cap-height="1000"
    bbox="0 -500 1023 1148"
    underline-thickness="50"
    underline-position="-50"
    unicode-range="U+000D-U+2212"
  />
<missing-glyph horiz-adv-x="300" 
 />
    <glyph glyph-name=".notdef" horiz-adv-x="300" 
 />
    <glyph glyph-name="NULL" horiz-adv-x="0" 
 />
    <glyph glyph-name="NULL" horiz-adv-x="0" 
 />
    <glyph glyph-name="nonmarkingreturn" unicode="&#xd;" horiz-adv-x="300" 
 />
    <glyph glyph-name="space" unicode=" " horiz-adv-x="300" 
 />
    <glyph glyph-name="exclam" unicode="!" horiz-adv-x="100" 
d="M75 90h-50v910h50v-910zM49 50c7.33301 0 13.5 -2.5 18.5 -7.5s7.5 -10.5 7.5 -16.5c0 -7.33301 -2.5 -13.5 -7.5 -18.5s-11.167 -7.5 -18.5 -7.5c-6 0 -11.5 2.5 -16.5 7.5s-7.5 11.167 -7.5 18.5c0 6 2.5 11.5 7.5 16.5s10.5 7.5 16.5 7.5z" />
    <glyph glyph-name="quotedbl" unicode="&#x22;" horiz-adv-x="152" 
d="M49 903h-49v97h49v-97zM124 903h-49v97h49v-97z" />
    <glyph glyph-name="percent" unicode="%" horiz-adv-x="1048" 
d="M681 986l-264 -986l-50 14l264 986zM768 510c34.667 0 67.5 -6.66699 98.5 -20s58.167 -31.5 81.5 -54.5s41.666 -50 54.999 -81s20 -64.167 20 -99.5s-6.66699 -68.5 -20 -99.5s-31.666 -58 -54.999 -81s-50.5 -41.167 -81.5 -54.5s-63.833 -20 -98.5 -20
c-35.333 0 -68.5 6.66699 -99.5 20s-58 31.5 -81 54.5s-41.167 50 -54.5 81s-20 64.167 -20 99.5s6.66699 68.5 20 99.5s31.5 58 54.5 81s50 41.167 81 54.5s64.167 20 99.5 20zM912 111c18.667 20 32.999 41.668 42.999 65.001c5.33301 12.667 9.33301 25.5 12 38.5
s4 26.5 4 40.5c0 26.667 -5.33301 53.334 -16 80.001c-10 24 -24.333 45.333 -43 64c-20 20 -41.667 34.667 -65 44c-13.333 5.33301 -26.5 9.16602 -39.5 11.499s-26.167 3.5 -39.5 3.5c-14 0 -27.5 -1.16699 -40.5 -3.5s-26.167 -6.16602 -39.5 -11.499
c-24.667 -10 -46 -24.667 -64 -44c-19.333 -17.333 -34.333 -38.666 -45 -63.999c-10 -25.333 -15 -52 -15 -80s5 -54.333 15 -79s25 -46.334 45 -65.001c18 -18 39.333 -32.667 64 -44c13.333 -5.33301 26.5 -9.33301 39.5 -12s26.5 -4 40.5 -4
c13.333 0 26.5 1.33301 39.5 4s26.167 6.66699 39.5 12c12.667 5.33301 24.334 11.666 35.001 18.999s20.667 15.666 30 24.999zM279.999 1000c35.333 0 68.5 -6.83301 99.5 -20.5s58 -32 81 -55s41.167 -50.167 54.5 -81.5s20 -64.333 20 -99
c0 -35.333 -6.66699 -68.5 -20 -99.5s-31.5 -58 -54.5 -81s-50 -41.167 -81 -54.5s-64.167 -20 -99.5 -20s-68.5 6.66699 -99.5 20s-58 31.5 -81 54.5s-41.167 50 -54.5 81s-20 64.167 -20 99.5c0 34.667 6.66699 67.667 20 99s31.5 58.5 54.5 81.5s50 41.333 81 55
s64.167 20.5 99.5 20.5zM423.999 600.001c19.333 18 33.999 39.668 43.999 65.001c5.33301 12.667 9.16602 25.5 11.499 38.5s3.5 26.5 3.5 40.5c0 13.333 -1.16699 26.833 -3.5 40.5s-6.16602 26.834 -11.499 39.501c-10 24.667 -24.667 46 -44 64
c-9.33301 9.33301 -19.333 17.666 -30 24.999s-22 13.666 -34 18.999c-12.667 5.33301 -25.834 9.16602 -39.501 11.499s-27.167 3.5 -40.5 3.5c-14 0 -27.5 -1.16699 -40.5 -3.5s-25.833 -6.16602 -38.5 -11.499c-12 -5.33301 -23.5 -11.666 -34.5 -18.999
s-21.167 -15.666 -30.5 -24.999c-18 -18 -32.667 -39.333 -44 -64c-10.667 -26.667 -16 -53.334 -16 -80.001c0 -14 1.33301 -27.5 4 -40.5s6.66699 -25.833 12 -38.5c10.667 -25.333 25.334 -47 44.001 -65c19.333 -18.667 41 -33.334 65 -44.001
c12.667 -5.33301 25.5 -9.33301 38.5 -12s26.5 -4 40.5 -4c26.667 0 53.334 5.33301 80.001 16c24.667 11.333 46 26 64 44z" />
    <glyph glyph-name="quotesingle" unicode="'" horiz-adv-x="116" 
d="M45 502l-36 35l71 72l36 -35z" />
    <glyph glyph-name="parenleft" unicode="(" horiz-adv-x="300" 
d="M92 827c-11.333 -26 -17 -51.6689 -17 -77.002v-500c0 -25.333 5.66699 -51 17 -77c10 -23.333 24 -44.666 42 -63.999c19.333 -18 40.666 -32 63.999 -42c26 -11.333 51.667 -17 77 -17v-50c-33.333 0 -65.333 6.66699 -96 20c-30 11.333 -56.667 29.333 -80 54
c-24.667 23.333 -42.667 50 -54 80c-6.66699 14.667 -11.5 30 -14.5 46s-4.83301 32.333 -5.5 49v1v500c0 34 6.66699 66 20 96c11.333 30 29.333 56.667 54 80c23.333 24.667 50 42.667 80 54c30.667 13.333 62.667 20 96 20v-50c-25.333 0 -51 -5.66699 -77 -17
c-23.333 -10 -44.666 -24 -63.999 -42c-18 -19.333 -32 -40.666 -42 -63.999z" />
    <glyph glyph-name="parenright" unicode=")" horiz-adv-x="301" 
d="M276 248c0 -30.667 -6.33105 -62.335 -18.998 -95.002c-6.66699 -15.333 -14.5 -29.666 -23.5 -42.999s-19.167 -25.666 -30.5 -36.999c-22.667 -22.667 -49.334 -40.667 -80.001 -54c-16 -6 -32.167 -10.667 -48.5 -14s-32.833 -5 -49.5 -5v51c26.667 0 52.667 5 78 15
c12 5.33301 23.333 11.5 34 18.5s20.667 15.167 30 24.5c17.333 18.667 31.666 40 42.999 64c10 24.667 15 50.667 15 78v498c0 26.667 -5 52.667 -15 78c-5.33301 12 -11.5 23.167 -18.5 33.5s-15.167 20.5 -24.5 30.5c-9.33301 9.33301 -19.333 17.5 -30 24.5
s-22 13.167 -34 18.5c-25.333 10 -51.333 15 -78 15v51c16.667 0 33.167 -1.66699 49.5 -5s32.5 -8 48.5 -14c29.333 -12.667 56 -31 80 -55c11.333 -11.333 21.5 -23.5 30.5 -36.5s16.833 -27.167 23.5 -42.5c12.667 -32.667 19 -64.667 19 -96v-2v-498v-3z" />
    <glyph glyph-name="plus" unicode="+" horiz-adv-x="426" 
d="M401 274v-48h-164v-164h-48v164h-164v48h164v164h48v-164h164v0z" />
    <glyph glyph-name="comma" unicode="," horiz-adv-x="100" 
d="M74 -50h-49v97h49v-97z" />
    <glyph glyph-name="hyphen" unicode="-" horiz-adv-x="439" 
d="M414 276v-51h-389v51h389zM414 276v-51h-389v51h389z" />
    <glyph glyph-name="period" unicode="." horiz-adv-x="100" 
d="M49 50c7.33301 0 13.5 -2.5 18.5 -7.5s7.5 -10.5 7.5 -16.5c0 -7.33301 -2.5 -13.5 -7.5 -18.5s-11.167 -7.5 -18.5 -7.5c-6 0 -11.5 2.5 -16.5 7.5s-7.5 11.167 -7.5 18.5c0 6 2.5 11.5 7.5 16.5s10.5 7.5 16.5 7.5z" />
    <glyph glyph-name="slash" unicode="/" horiz-adv-x="364" 
d="M289 1000l50 -13l-264 -987l-50 13l264 987v0z" />
    <glyph glyph-name="zero" unicode="0" horiz-adv-x="551" 
d="M526 252l-0.000976562 -3.99902c-0.666992 -16 -2.33398 -32 -5.00098 -48s-7.33398 -31.667 -14.001 -47c-13.333 -30 -31 -56.667 -53 -80c-12 -11.333 -24.667 -21.333 -38 -30s-27.333 -16.334 -42 -23.001c-32 -13.333 -64.333 -20 -97 -20
c-34 0 -67 6.66699 -99 20c-30 13.333 -56.667 31 -80 53c-22 23.333 -39.667 50 -53 80c-6.66699 15.333 -11.5 31 -14.5 47s-4.83301 32 -5.5 48v4v496v2c0 34 6.66699 66.333 20 97c12.667 30.667 30.334 57.334 53.001 80.001c12 11.333 24.5 21.5 37.5 30.5
s27.167 16.5 42.5 22.5c29.333 13.333 62.333 20 99 20c16.667 0 33.167 -1.5 49.5 -4.5s32.166 -8.16699 47.499 -15.5c28.667 -12 55.334 -29.667 80.001 -53c22 -22.667 39.667 -49.334 53 -80.001c6.66699 -15.333 11.334 -31 14.001 -47s4.33398 -32.667 5.00098 -50
v-2v-496zM476.999 748.001c0 28 -5.66699 54.3291 -17 78.9961c-9.33301 24 -23.666 45.333 -42.999 64c-8.66699 9.33301 -18.334 17.5 -29.001 24.5s-22 13.167 -34 18.5c-26.667 10.667 -52.334 16 -77.001 16c-27.333 0 -53.666 -5.33301 -78.999 -16
s-46.666 -25 -63.999 -43c-18 -17.333 -32.333 -38.666 -43 -63.999s-16 -51.666 -16 -78.999v-496c0 -27.333 5.33301 -53.666 16 -78.999s25 -46.666 43 -63.999c17.333 -18 38.666 -32.333 63.999 -43s51.666 -16 78.999 -16c24.667 0 50.334 5.33301 77.001 16
c12 5.33301 23.333 11.5 34 18.5s20.334 15.167 29.001 24.5c19.333 18.667 33.666 40 42.999 64c11.333 24.667 17 51 17 79v496zM276.999 523.997c6.66699 0 12.334 -2.33301 17.001 -7s7 -10.334 7 -17.001c0 -7.33301 -2.33301 -13.333 -7 -18s-10.334 -7 -17.001 -7
c-7.33301 0 -13.666 2.33301 -18.999 7s-8 10.667 -8 18c0 6.66699 2.66699 12.334 8 17.001s11.666 7 18.999 7z" />
    <glyph glyph-name="one" unicode="1" horiz-adv-x="299" 
d="M274 0l-48.998 0.000976562v750c0 27.333 -5.66699 53.333 -17 78c-4.66699 12 -10.5 23.167 -17.5 33.5s-15.167 20.166 -24.5 29.499c-19.333 19.333 -40.333 33.333 -63 42c-26.667 11.333 -53 17 -79 17v50c17.333 0 34.166 -1.5 50.499 -4.5
s32.166 -8.16699 47.499 -15.5c31.333 -12.667 57.666 -30.667 78.999 -54c24 -22.667 42.333 -49 55 -79c6.66699 -15.333 11.334 -31 14.001 -47s4 -32.333 4 -49v-751z" />
    <glyph glyph-name="two" unicode="2" horiz-adv-x="549" 
d="M525 0l-450.007 -0.00195312h-50v306c0 32 6.33301 62.667 19 92c13.333 30 31.333 56.333 54 79c24 24 50.667 41.667 80 53c15.333 6 31 10.833 47 14.5s32.333 5.5 49 5.5c26.667 0 52.667 5.33301 78 16c24 10 45.333 24.333 64 43
c9.33301 8.66699 17.5 18.334 24.5 29.001s13.167 22 18.5 34c9.33301 23.333 14.666 49.333 15.999 78c-1.33301 28 -6.66602 53.667 -15.999 77c-11.333 24 -25.666 45.333 -42.999 64c-18.667 17.333 -40 31.666 -64 42.999c-24 10 -50 15 -78 15
c-27.333 0 -53 -5 -77 -15c-24 -11.333 -45.333 -25.666 -64 -42.999c-17.333 -18.667 -31.666 -40 -42.999 -64c-10 -24 -15 -49.667 -15 -77h-51c0 32.667 6.66699 65 20 97c12.667 30 30.667 56.333 54 79c22.667 24 48.667 42 78 54c32.667 13.333 65.334 20 98.001 20
s65.334 -6.66699 98.001 -20c29.333 -12 55.666 -30 78.999 -54c23.333 -22.667 41.333 -49 54 -79c7.33301 -15.333 12.333 -31 15 -47s4 -32.667 4 -50s-1.33301 -34 -4 -50s-7.66699 -32 -15 -48c-12.667 -31.333 -30.667 -57.666 -54 -78.999
c-22 -23.333 -48.333 -41 -79 -53c-15.333 -7.33301 -31.166 -12.5 -47.499 -15.5s-32.833 -4.5 -49.5 -4.5c-28 0 -54 -5.33301 -78 -16c-12 -5.33301 -23.167 -11.333 -33.5 -18s-20.166 -14.667 -29.499 -24s-17.666 -19.333 -24.999 -30s-13.666 -21.667 -18.999 -33
c-10 -25.333 -15 -51.333 -15 -78v-250h450v-51z" />
    <glyph glyph-name="three" unicode="3" 
d="M453 470c22.667 -27.333 40.3301 -56.6641 52.9971 -87.9971c6 -17.333 10.667 -34.833 14 -52.5s5 -35.5 5 -53.5c0 -19.333 -1.66699 -37.666 -5 -54.999s-8 -34.666 -14 -51.999c-13.333 -33.333 -31 -62.666 -53 -87.999c-11.333 -12.667 -23.666 -24 -36.999 -34
s-27.666 -18.333 -42.999 -25c-30 -14.667 -63 -22 -99 -22c-31.333 0 -61.5 6.16699 -90.5 18.5s-55.167 30.5 -78.5 54.5c-22.667 23.333 -40.667 49.833 -54 79.5s-21.666 61.5 -24.999 95.5c0 4.66699 -0.166992 9.16699 -0.5 13.5s-0.5 9.16602 -0.5 14.499h51v-12
c0 -4 0.333008 -7.66699 1 -11c2 -28 8.5 -54.5 19.5 -79.5s26.167 -46.5 45.5 -64.5c18 -19.333 38.333 -33.833 61 -43.5s46.334 -14.5 71.001 -14.5c28.667 0 54.667 5.66699 78 17s44 27.333 62 48c10 10 18.5 21 25.5 33s13.167 24.667 18.5 38
c10.667 27.333 16 57 16 89c0 15.333 -1.33301 30.333 -4 45s-6.66699 28.667 -12 42s-11.5 26.166 -18.5 38.499s-15.5 23.833 -25.5 34.5c-9.33301 9.33301 -19.166 18.166 -29.499 26.499s-21.166 15.166 -32.499 20.499c-26 11.333 -51 17 -75 17h-3v51h3
c25.333 0 50.666 5 75.999 15c22 9.33301 43 23.666 63 42.999c18 18.667 32 39.667 42 63c10.667 24 16 49.667 16 77s-5.33301 53.666 -16 78.999c-10 22.667 -24 43.667 -42 63c-9.33301 9.33301 -19.333 17.5 -30 24.5s-21.667 12.833 -33 17.5
c-25.333 10.667 -51.666 16 -78.999 16s-53 -5.33301 -77 -16c-22.667 -8.66699 -43.667 -22.667 -63 -42c-18.667 -18.667 -33 -39.667 -43 -63c-10 -26 -15 -52.333 -15 -79h-51c0 17.333 1.66699 34.166 5 50.499s8 32.166 14 47.499
c6.66699 14.667 14.5 28.834 23.5 42.501s19.167 26.167 30.5 37.5s23.666 21.5 36.999 30.5s27.666 16.833 42.999 23.5c32.667 12.667 64.667 19 96 19c17.333 0 34.166 -1.66699 50.499 -5s32.166 -8 47.499 -14c29.333 -13.333 56 -31.333 80 -54
c11.333 -11.333 21.5 -23.833 30.5 -37.5s16.5 -27.834 22.5 -42.501c13.333 -32 20 -64.667 20 -98c0 -32 -6.66699 -64 -20 -96c-6 -15.333 -13.5 -29.666 -22.5 -42.999s-19.167 -25.666 -30.5 -36.999c-10 -10 -21 -19 -33 -27s-24.333 -15.333 -37 -22
c26.667 -14.667 50.334 -32.667 71.001 -54z" />
    <glyph glyph-name="four" unicode="4" horiz-adv-x="549" 
d="M524 1000l0.00195312 -999.997h-50v475h-214c-14.667 0.666992 -28.834 2.66699 -42.501 6s-27.167 7.66602 -40.5 12.999c-29.333 13.333 -55.666 31.333 -78.999 54c-22.667 22.667 -40.334 48.667 -53.001 78c-6.66699 15.333 -11.5 30.666 -14.5 45.999
s-4.83301 30.666 -5.5 45.999v7v275h51v-275c0 -27.333 5 -53.333 15 -78c10 -23.333 24.333 -44.333 43 -63c9.33301 -9.33301 19.166 -17.5 29.499 -24.5s21.5 -13.167 33.5 -18.5c25.333 -10.667 51.333 -16 78 -16h199v475h50z" />
    <glyph glyph-name="five" unicode="5" horiz-adv-x="549" 
d="M73 950l0.00292969 -226.001c0 -26.667 5.33301 -52.667 16 -78c11.333 -24.667 25.666 -45.667 42.999 -63c18 -18.667 39.333 -33 64 -43c23.333 -10.667 49 -16 77 -16c17.333 0 34.166 -1.5 50.499 -4.5s32.166 -8.16699 47.499 -15.5
c29.333 -12 55.666 -29.667 78.999 -53c24 -24 42 -50.333 54 -79c6 -15.333 10.667 -30.833 14 -46.5s5 -31.834 5 -48.501v-29c0 -32 -6.33301 -63.667 -19 -95c-6 -15.333 -13.667 -29.5 -23 -42.5s-19.666 -25.167 -30.999 -36.5
c-23.333 -24 -49.666 -41.667 -78.999 -53c-31.333 -14 -64 -21 -98 -21c-34.667 0 -67 7 -97 21c-30 10.667 -56.333 28.334 -79 53.001c-24.667 22.667 -42.334 49 -53.001 79c-14 30 -21 62.333 -21 97h50c0 -26 5.33301 -51.667 16 -77s25 -46.666 43 -63.999
c17.333 -18 38.666 -32.333 63.999 -43s51 -16 77 -16c25.333 0 51.333 5.33301 78 16c11.333 5.33301 22.333 11.5 33 18.5s20.667 15.167 30 24.5c19.333 19.333 33.666 40.666 42.999 63.999c10.667 25.333 16 51 16 77v24c0 25.333 -5.33301 51.333 -16 78
c-10 23.333 -24.333 44.333 -43 63c-9.33301 9.33301 -19.333 17.5 -30 24.5s-21.667 13.167 -33 18.5c-24 10.667 -50 16 -78 16c-16.667 0 -33.167 1.5 -49.5 4.5s-32.166 7.83301 -47.499 14.5c-30.667 12.667 -57 30.667 -79 54c-12 11.333 -22.667 23.5 -32 36.5
s-16.666 27.167 -21.999 42.5c-5.33301 10.667 -9.33301 21.834 -12 33.501s-4.66699 23.5 -6 35.5v305h48h451v-50h-451z" />
    <glyph glyph-name="six" unicode="6" horiz-adv-x="551" 
d="M275 500c34.667 0 67.168 -6.49902 97.501 -19.499s56.833 -30.833 79.5 -53.5s40.667 -49 54 -79s20 -62.333 20 -97s-6.66699 -67.334 -20 -98.001s-31.333 -57.334 -54 -80.001s-49.167 -40.5 -79.5 -53.5s-62.833 -19.5 -97.5 -19.5s-67.334 6.5 -98.001 19.5
s-57.334 30.833 -80.001 53.5s-40.5 49.334 -53.5 80.001s-19.5 63.334 -19.5 98.001v6.5c0 2.33301 0.333008 4.83301 1 7.5v485v1c0 34.667 6.33301 66.667 19 96c12.667 30 30.667 56.667 54 80c11.333 11.333 23.5 21.5 36.5 30.5s27.167 16.833 42.5 23.5
c32.667 12.667 65.334 19 98.001 19c16.667 0 33.167 -1.66699 49.5 -5s32.5 -8 48.5 -14c28.667 -13.333 54.667 -31.333 78 -54c24 -22.667 42.333 -49.334 55 -80.001c6 -15.333 10.667 -31 14 -47s5 -32.667 5 -50h-50c0 25.333 -5.33301 51.333 -16 78
c-11.333 24.667 -25.666 45.667 -42.999 63c-17.333 18.667 -38.333 33 -63 43c-25.333 10 -51.333 15 -78 15s-53 -5 -79 -15c-11.333 -5.33301 -22.333 -11.5 -33 -18.5s-20.334 -15.167 -29.001 -24.5c-18.667 -18.667 -33.334 -39.667 -44.001 -63
c-10 -25.333 -15 -51.333 -15 -78v-348c23.333 30 52.333 53.833 87 71.5s72.334 26.5 113.001 26.5zM416.001 109.001c18.667 18.667 32.999 39.668 42.999 63.001c10.667 25.333 16 51.666 16 78.999c0 13.333 -1.33301 26.5 -4 39.5s-6.66699 25.833 -12 38.5
c-5.33301 12 -11.5 23.167 -18.5 33.5s-15.167 20.166 -24.5 29.499s-19.166 17.5 -29.499 24.5s-21.5 13.167 -33.5 18.5c-12.667 5.33301 -25.5 9.33301 -38.5 12s-26.167 4 -39.5 4c-27.333 0 -53.666 -5.33301 -78.999 -16c-23.333 -10 -44.333 -24.333 -63 -43
c-9.33301 -9.33301 -17.5 -19.166 -24.5 -29.499s-13.167 -21.5 -18.5 -33.5c-9.33301 -21.333 -14.333 -43.333 -15 -66v-12c0 -26.667 5 -53 15 -79c10 -23.333 24.333 -44.333 43 -63s39.667 -33 63 -43c26 -10 52.333 -15 79 -15s52.667 5 78 15
c12 5.33301 23.167 11.5 33.5 18.5s20.166 15.167 29.499 24.5z" />
    <glyph glyph-name="seven" unicode="7" horiz-adv-x="551" 
d="M526 0l-51 -0.000976562v476h-200v49h200v225c0 13.333 -1.16699 26.5 -3.5 39.5s-6.83301 25.833 -13.5 38.5c-9.33301 24 -23 45 -41 63c-18.667 18.667 -40 33 -64 43c-26.667 10.667 -52.667 16 -78 16h-249v50h249h1c32.667 0 65.334 -6.33301 98.001 -19
c28.667 -13.333 54.667 -31.333 78 -54c11.333 -11.333 21.666 -23.666 30.999 -36.999s17 -27.666 23 -42.999c13.333 -30.667 20 -62.334 20 -95.001v-2v-750z" />
    <glyph glyph-name="eight" unicode="8" horiz-adv-x="551" 
d="M525 250l-0.00585938 -1.99805c0 -32.667 -6.66699 -64.334 -20 -95.001c-12.667 -31.333 -30.667 -57.666 -54 -78.999c-11.333 -12 -23.5 -22.333 -36.5 -31s-27.167 -16.334 -42.5 -23.001c-15.333 -6 -31.166 -10.833 -47.499 -14.5s-32.5 -5.5 -48.5 -5.5
c-17.333 0 -34.166 1.83301 -50.499 5.5s-32.166 8.5 -47.499 14.5c-15.333 6.66699 -29.666 14.334 -42.999 23.001s-25.666 19 -36.999 31c-12 11.333 -22.333 23.5 -31 36.5s-16.334 27.167 -23.001 42.5c-12.667 31.333 -19 63 -19 95v2v49v3c0 16 1.66699 32 5 48
s8 31.667 14 47c6.66699 15.333 14.334 29.5 23.001 42.5s19 25.167 31 36.5c20 20 42 36 66 48c-20.667 10.667 -39.5 23.667 -56.5 39s-31.667 32.666 -44 51.999s-22 40.333 -29 63s-10.5 46 -10.5 70c0 34.667 6.5 67.334 19.5 98.001s30.833 57.334 53.5 80.001
s49.334 40.667 80.001 54s63.667 20 99 20c34 0 66.167 -6.66699 96.5 -20s56.833 -31.333 79.5 -54s40.667 -49.334 54 -80.001s20 -63.334 20 -98.001c0 -48.667 -13.167 -92.834 -39.5 -132.501s-60.5 -70.167 -102.5 -91.5c26 -12.667 48.333 -28.667 67 -48
c23.333 -21.333 41.333 -47.666 54 -78.999c13.333 -30.667 20 -62.334 20 -95.001v-3v-49zM89.9941 672.002c10 -24.667 24.3311 -46.334 42.998 -65.001c9.33301 -9.33301 19.5 -17.166 30.5 -23.499s22.167 -12.166 33.5 -17.499c20.667 -9.33301 43.667 -15 69 -17h10h8
c12 1.33301 23.667 3.16602 35 5.49902s22.333 6.16602 33 11.499c25.333 10 47 23.667 65 41c17.333 18 31 39.667 41 65c5.33301 12 9.5 24.333 12.5 37s4.5 25.667 4.5 39c0 14 -1.5 27.5 -4.5 40.5s-7.16699 25.833 -12.5 38.5
c-5.33301 11.333 -11.166 22.5 -17.499 33.5s-14.166 21.167 -23.499 30.5s-19.333 17.5 -30 24.5s-22.334 13.167 -35.001 18.5c-25.333 10.667 -50.666 16 -75.999 16c-14 0 -27.5 -1.33301 -40.5 -4s-25.833 -6.66699 -38.5 -12c-22.667 -10 -44 -24.333 -64 -43
c-18 -18 -32.333 -39.333 -43 -64c-10.667 -24 -16 -50.333 -16 -79c0 -27.333 5.33301 -52.666 16 -75.999zM416.992 109.002c17.333 18 30.9951 39.3359 40.9951 64.0029c5.33301 11.333 9.5 23.666 12.5 36.999s4.5 26.666 4.5 39.999v49c0 14 -1.5 27.5 -4.5 40.5
s-7.16699 25.833 -12.5 38.5c-5.33301 11.333 -11.166 22.333 -17.499 33s-14.166 20.667 -23.499 30c-10 9.33301 -20.167 17.333 -30.5 24s-21.833 12.667 -34.5 18c-10.667 4.66699 -21.667 8.33398 -33 11.001s-23 4.33398 -35 5.00098
c-1.33301 0 -2.66602 -0.166992 -3.99902 -0.5s-2.66602 -0.5 -3.99902 -0.5c-2.66699 0 -4.66699 0.166992 -6 0.5s-2.66602 0.5 -3.99902 0.5c-12.667 -0.666992 -24.5 -2.33398 -35.5 -5.00098s-22.167 -6.33398 -33.5 -11.001c-24 -10.667 -45.333 -24.667 -64 -42
c-18.667 -18.667 -33 -39.667 -43 -63c-5.33301 -12.667 -9.33301 -25.5 -12 -38.5s-4 -26.5 -4 -40.5v-49c0 -26.667 5.33301 -52.334 16 -77.001c5.33301 -12 11.5 -23.333 18.5 -34s15.167 -20.667 24.5 -30c18 -18 39.333 -32.333 64 -43c24 -10.667 50.333 -16 79 -16
c26.667 0 52 5.33301 76 16c12.667 5.33301 24.167 11.5 34.5 18.5s20.5 15.167 30.5 24.5z" />
    <glyph glyph-name="nine" unicode="9" 
d="M525 0h-49v599c-23.333 -30 -52.333 -54 -87 -72s-72.667 -27 -114 -27c-34 0 -66.167 6.5 -96.5 19.5s-56.833 30.833 -79.5 53.5s-40.667 49.167 -54 79.5s-20 62.833 -20 97.5c0 34 6.66699 66.167 20 96.5s31.333 56.833 54 79.5s49.167 40.667 79.5 54
s62.5 20 96.5 20c34.667 0 67.167 -6.66699 97.5 -20s56.833 -31.333 79.5 -54s40.5 -49.167 53.5 -79.5s19.5 -62.5 19.5 -96.5v-750zM459 672c11.333 23.333 17.002 49.334 17.002 78.001c0 28 -5.66699 53.667 -17 77c-5.33301 12.667 -11.5 24.167 -18.5 34.5
s-14.833 20.166 -23.5 29.499c-18.667 18.667 -40 33 -64 43c-12.667 5.33301 -25.334 9.33301 -38.001 12s-26 4 -40 4c-13.333 0 -26.333 -1.33301 -39 -4s-25.334 -6.66699 -38.001 -12c-23.333 -9.33301 -44.666 -23.666 -63.999 -42.999
c-9.33301 -9.33301 -17.5 -19.166 -24.5 -29.499s-13.167 -21.833 -18.5 -34.5s-9.33301 -25.334 -12 -38.001s-4 -25.667 -4 -39c0 -14 1.33301 -27.333 4 -40s6.66699 -25.334 12 -38.001c10 -24.667 24.333 -45.667 43 -63c9.33301 -9.33301 19.166 -17.5 29.499 -24.5
s21.833 -13.167 34.5 -18.5c23.333 -11.333 49 -17 77 -17c28.667 0 54.667 5.66699 78 17c24 10 45.333 24.333 64 43c18 18 32 39 42 63z" />
    <glyph glyph-name="colon" unicode=":" horiz-adv-x="84" 
d="M15 24c0 7.33301 2.33301 13.333 7 18s10.334 7 17.001 7c7.33301 0 13.333 -2.33301 18 -7s7 -10.667 7 -18c0 -6.66699 -2.33301 -12.334 -7 -17.001s-10.667 -7 -18 -7c-6.66699 0 -12.334 2.33301 -17.001 7s-7 10.334 -7 17.001zM15 351
c0 6.66699 2.33301 12.334 7 17.001s10.334 7 17.001 7c7.33301 0 13.333 -2.33301 18 -7s7 -10.334 7 -17.001c0 -7.33301 -2.33301 -13.333 -7 -18s-10.667 -7 -18 -7c-6.66699 0 -12.334 2.33301 -17.001 7s-7 10.667 -7 18z" />
    <glyph glyph-name="semicolon" unicode=";" horiz-adv-x="95" 
d="M74 -50h-49v97h49v-97zM25 352c0 6.66699 2.5 12.167 7.5 16.5s10.167 6.5 15.5 6.5c7.33301 0 13.5 -2.16699 18.5 -6.5s7.5 -9.83301 7.5 -16.5c0 -7.33301 -2.5 -13.5 -7.5 -18.5s-11.167 -7.5 -18.5 -7.5c-5.33301 0 -10.5 2.5 -15.5 7.5s-7.5 11.167 -7.5 18.5z" />
    <glyph glyph-name="equal" unicode="=" horiz-adv-x="435" 
d="M410 387v-50h-385v50h385v0zM410 163v-50h-385v50h385v0z" />
    <glyph glyph-name="question" unicode="?" 
d="M523 720c-0.666992 -31.333 -7.33203 -62.332 -19.999 -92.999s-30.334 -57.334 -53.001 -80.001c-25.333 -22.667 -52 -40 -80 -52c-15.333 -6.66699 -31 -11.5 -47 -14.5s-32.333 -4.83301 -49 -5.5c-13.333 0 -26.333 -1.16699 -39 -3.5
s-25.334 -6.16602 -38.001 -11.499c-23.333 -10 -44.333 -24.667 -63 -44c-9.33301 -8.66699 -17.5 -18.334 -24.5 -29.001s-13.167 -21.667 -18.5 -33c-10.667 -26.667 -16 -52.334 -16 -77.001v-188h-50v189c0 32.667 6.66699 64.334 20 95.001c12 30.667 29.667 57 53 79
c11.333 12 23.666 22.333 36.999 31s27.333 16.334 42 23.001c32.667 12.667 65 19 97 19c27.333 0 53 5.33301 77 16c12 4.66699 23.333 10.667 34 18s20.667 15.666 30 24.999s17.333 19.166 24 29.499s12.334 21.166 17.001 32.499c11.333 26.667 17 52.667 17 78v26
c0 14 -1.5 27.333 -4.5 40s-7.16699 25.334 -12.5 38.001c-8.66699 22.667 -22.334 44 -41.001 64c-19.333 18 -40.666 32 -63.999 42c-26.667 10.667 -52.334 16 -77.001 16c-14 0 -27.333 -1.33301 -40 -4s-25.334 -6.66699 -38.001 -12
c-25.333 -10.667 -46.666 -24.667 -63.999 -42c-18 -19.333 -32 -40.666 -42 -63.999c-10.667 -24 -16 -50 -16 -78h-50c0 32.667 6.66699 65 20 97c12.667 31.333 30.334 58 53.001 80c23.333 23.333 50 41 80 53c30.667 13.333 63 20 97 20
c33.333 0 65.333 -6.66699 96 -20c28.667 -12 55.334 -29.667 80.001 -53c23.333 -23.333 41 -50 53 -80c6 -15.333 10.833 -31 14.5 -47s5.5 -32 5.5 -48v-2v-30zM50.002 50.001c6.66699 0 12.5 -2.33301 17.5 -7s7.5 -10.334 7.5 -17.001
c0 -7.33301 -2.5 -13.5 -7.5 -18.5s-10.833 -7.5 -17.5 -7.5c-7.33301 0 -13.333 2.5 -18 7.5s-7 11.167 -7 18.5c0 6.66699 2.33301 12.334 7 17.001s10.667 7 18 7z" />
    <glyph glyph-name="at" unicode="@" horiz-adv-x="855" 
d="M830 250c0 -17.333 -1.00195 -34.6709 -3.00195 -52.0039s-5.66699 -34.333 -11 -51c-3.33301 -15.333 -8.16602 -31.166 -14.499 -47.499s-13.166 -32.166 -20.499 -47.499l-9.5 -15.5c-3 -5 -6.83301 -9.83301 -11.5 -14.5c-10.667 -10 -22.667 -17.833 -36 -23.5
s-27.333 -8.5 -42 -8.5c-29.333 0 -54.666 10.667 -75.999 32c-5.33301 4.66699 -9.83301 9.83398 -13.5 15.501s-6.83398 11.167 -9.50098 16.5c-21.333 -17.333 -45.166 -30.666 -71.499 -39.999s-54.166 -14 -83.499 -14c-34.667 0 -67.167 6.5 -97.5 19.5
s-56.833 30.833 -79.5 53.5s-40.667 49.167 -54 79.5s-20 62.833 -20 97.5s6.66699 67.167 20 97.5s31.333 56.833 54 79.5s49.167 40.5 79.5 53.5s62.833 19.5 97.5 19.5c34 0 66.167 -6.5 96.5 -19.5s56.833 -30.833 79.5 -53.5s40.667 -49.167 54 -79.5
s20 -62.833 20 -97.5c0 -30 -4.83301 -58.333 -14.5 -85s-23.5 -50.667 -41.5 -72c2.66699 -15.333 9.5 -27.833 20.5 -37.5s24.167 -14.5 39.5 -14.5c20 0 36 7.33301 48 22c1.33301 1.33301 2.83301 3 4.5 5s3.16699 4 4.5 6c0 3.33301 0.333008 5.33301 1 6
c0 1.33301 0.333008 2.33301 1 3c12.667 23.333 23 48.666 31 75.999c3.33301 14.667 5.83301 29.667 7.5 45s2.5 30.666 2.5 45.999c0 48 -9.33301 93.667 -28 137c-8 21.333 -18.5 41.5 -31.5 60.5s-27.833 36.5 -44.5 52.5c-31.333 32 -69 57.333 -113 76
c-43.333 18.667 -89 28 -137 28c-48.667 0 -94.667 -9.33301 -138 -28c-21.333 -9.33301 -41.5 -20.166 -60.5 -32.499s-36.5 -26.833 -52.5 -43.5c-32 -31.333 -57.333 -69 -76 -113c-18.667 -43.333 -28 -89 -28 -137c0 -48.667 9.33301 -94.667 28 -138
c9.33301 -21.333 20.166 -41.5 32.499 -60.5s26.833 -36.5 43.5 -52.5c16 -16.667 33.5 -31.167 52.5 -43.5s39.167 -23.166 60.5 -32.499c43.333 -18.667 89.333 -28 138 -28c51.333 0 99.666 10.333 144.999 31l20 -44c-25.333 -11.333 -52 -20 -80 -26s-56.333 -9 -85 -9
c-28 0 -54.833 2.66699 -80.5 8s-51.167 13.333 -76.5 24c-23.333 10 -45.833 22.333 -67.5 37s-41.834 31 -60.501 49c-18 18.667 -34.333 38.834 -49 60.501s-27 44.167 -37 67.5c-10.667 25.333 -18.667 50.833 -24 76.5s-8 52.5 -8 80.5s2.66699 54.667 8 80
s13.333 50.666 24 75.999c10 24 22.333 46.667 37 68s31 41.333 49 60c18.667 19.333 38.834 36 60.501 50s44.167 26 67.5 36c25.333 10.667 50.833 18.667 76.5 24s52.5 8 80.5 8s54.667 -2.66699 80 -8s50.666 -13.333 75.999 -24c49.333 -20.667 92 -49.334 128 -86.001
c36.667 -36 65.334 -78.667 86.001 -128c10.667 -25.333 18.667 -50.666 24 -75.999s8 -52 8 -80zM506.998 63.9951c22.667 10 43.999 24.334 63.999 43.001c18 17.333 32.333 39 43 65c5.33301 11.333 9 23.666 11 36.999s3 27 3 41c0 13.333 -1 26.833 -3 40.5
s-5.66699 26.5 -11 38.5s-11.5 23.5 -18.5 34.5s-15.167 20.833 -24.5 29.5c-9.33301 10.667 -19.5 19.167 -30.5 25.5s-22.167 12.166 -33.5 17.499c-12 6 -24.833 9.83301 -38.5 11.5s-27.167 2.5 -40.5 2.5c-14 0 -27.667 -0.833008 -41 -2.5s-25.666 -5.5 -36.999 -11.5
c-12.667 -5.33301 -24.334 -11.166 -35.001 -17.499s-20.667 -14.833 -30 -25.5c-10 -8.66699 -18.5 -18.5 -25.5 -29.5s-13.167 -22.5 -18.5 -34.5s-9.16602 -24.833 -11.499 -38.5s-3.5 -27.167 -3.5 -40.5c0 -14 1.16699 -27.667 3.5 -41s6.16602 -25.666 11.499 -36.999
c10.667 -26.667 25.334 -48.334 44.001 -65.001c18.667 -18.667 40.334 -33 65.001 -43c11.333 -6 23.666 -10.167 36.999 -12.5s27 -3.5 41 -3.5c13.333 0 26.833 1.16699 40.5 3.5s26.5 6.5 38.5 12.5z" />
    <glyph glyph-name="A" unicode="A" 
d="M525 224l-0.00292969 -224h-50v224h-399v-224h-51v224v52v473v3c0 16 1.5 32.167 4.5 48.5s8.16699 31.833 15.5 46.5c12 31.333 30.333 57.333 55 78c11.333 12.667 23.333 23.167 36 31.5s26.334 15.833 41.001 22.5c15.333 7.33301 31.333 12.5 48 15.5
s32.667 4.5 48 4.5c17.333 0 34.5 -1.5 51.5 -4.5s33.167 -8.16699 48.5 -15.5c14.667 -6.66699 28.5 -14.167 41.5 -22.5s25.167 -18.833 36.5 -31.5c24 -22 42.333 -48 55 -78c6.66699 -14.667 11.334 -30.167 14.001 -46.5s4.33398 -32.5 5.00098 -48.5v-3v-473v-52z
M474.997 276l-0.00585938 473c0 28 -5.33301 54.667 -16 80c-5.33301 11.333 -11.666 22.166 -18.999 32.499s-15 19.833 -23 28.5c-9.33301 9.33301 -19.166 17.333 -29.499 24s-21.166 13 -32.499 19c-13.333 5.33301 -26.666 9.5 -39.999 12.5s-27.333 4.5 -42 4.5
c-13.333 0 -26.166 -1.5 -38.499 -4.5s-24.833 -7.16699 -37.5 -12.5c-12.667 -6 -24.167 -12.333 -34.5 -19s-19.166 -14.667 -26.499 -24c-19.333 -17.333 -34 -37.666 -44 -60.999c-10.667 -25.333 -16 -52 -16 -80v-473h399z" />
    <glyph glyph-name="B" unicode="B" 
d="M453 469c22 -24.667 39.6689 -53.6689 53.002 -87.002c12.667 -33.333 19 -69 19 -107s-6.33301 -73 -19 -105c-12.667 -32.667 -30.334 -62.334 -53.001 -89.001c-23.333 -25.333 -49.666 -45 -78.999 -59c-31.333 -14.667 -64.333 -22 -99 -22
c-31.333 0 -61.5 6.16699 -90.5 18.5s-55.167 30.5 -78.5 54.5c-22.667 23.333 -40.667 50 -54 80s-21.666 62 -24.999 96h-2v26v225v51v199v2c0.666992 16.667 2.5 32.834 5.5 48.501s7.83301 31.167 14.5 46.5c12.667 28.667 30.667 55.334 54 80.001
c11.333 11.333 23.666 21.5 36.999 30.5s27.666 16.833 42.999 23.5c31.333 12.667 63.333 19 96 19c16.667 0 33.167 -1.66699 49.5 -5s32.5 -8 48.5 -14c14.667 -6.66699 28.667 -14.5 42 -23.5s25.666 -19.167 36.999 -30.5c11.333 -12 21.5 -24.5 30.5 -37.5
s16.5 -27.167 22.5 -42.5c7.33301 -15.333 12.5 -31.166 15.5 -47.499s4.5 -32.833 4.5 -49.5s-1.5 -33.167 -4.5 -49.5s-8.16699 -32.166 -15.5 -47.499c-12.667 -30.667 -30.334 -57.334 -53.001 -80.001c-10.667 -10 -21.667 -19.167 -33 -27.5
s-23.666 -15.5 -36.999 -21.5c25.333 -12.667 49 -31 71 -55zM76.002 550.998l199.002 -0.000976562h1c25.333 0 50.666 5.33301 75.999 16c12 5.33301 23.333 11.333 34 18s20.667 14.667 30 24s17.333 19.333 24 30s12.667 22 18 34c11.333 24.667 17 50.334 17 77.001
c0 25.333 -5.66699 51 -17 77c-5.33301 12 -11.333 23.333 -18 34s-14.667 20.667 -24 30s-19.333 17.5 -30 24.5s-22 13.167 -34 18.5c-24 10 -49.667 15 -77 15c-26.667 0 -52.334 -5 -77.001 -15c-24 -10 -45.333 -24.333 -64 -43s-33 -40 -43 -64
c-10 -25.333 -15 -51 -15 -77v-199zM458.004 187.997c11.333 28.667 16.998 57.667 16.998 87c0 30.667 -5.66699 60 -17 88c-10 27.333 -24.333 51.333 -43 72c-9.33301 10.667 -19.333 20 -30 28s-21.667 14.667 -33 20c-12 6 -24.333 10.333 -37 13s-25.667 4 -39 4h-1
h-199v-225c0 -4 0.166992 -7.83301 0.5 -11.5s0.5 -7.5 0.5 -11.5c2.66699 -28 9.5 -54.167 20.5 -78.5s25.833 -45.833 44.5 -64.5c18.667 -19.333 39.334 -33.833 62.001 -43.5s46.334 -14.5 71.001 -14.5c25.333 0 51 5.66699 77 17c24 11.333 45 27 63 47
c18.667 20.667 33 45 43 73z" />
    <glyph glyph-name="C" unicode="C" horiz-adv-x="552" 
d="M460 173c10.667 24 16.001 49.6699 16.001 77.0029h51c0 -32.667 -6.66699 -65 -20 -97c-6.66699 -14.667 -14.5 -28.834 -23.5 -42.501s-19.167 -26.167 -30.5 -37.5s-23.666 -21.5 -36.999 -30.5s-27.333 -16.5 -42 -22.5c-32.667 -13.333 -65.667 -20 -99 -20
c-32.667 0 -65 6.66699 -97 20c-14.667 6 -28.834 13.5 -42.501 22.5s-26.167 19.167 -37.5 30.5s-21.5 23.833 -30.5 37.5s-16.5 27.834 -22.5 42.501c-13.333 30.667 -20 62.334 -20 95.001v2v500v1c0 33.333 6.66699 65.333 20 96c6 15.333 13.5 29.666 22.5 42.999
s19.167 25.666 30.5 36.999c24 22.667 50.667 40.667 80 54c30 12.667 62.333 19 97 19s67.667 -6.33301 99 -19c14.667 -6.66699 28.667 -14.5 42 -23.5s25.666 -19.167 36.999 -30.5c22.667 -22.667 40.667 -49.334 54 -80.001s20 -63 20 -97h-51c0 28 -5.33301 54 -16 78
c-5.33301 11.333 -11.5 22.333 -18.5 33s-15.167 21 -24.5 31c-18 18 -39.333 32 -64 42c-24 10 -50 15 -78 15c-26.667 0 -52.334 -5 -77.001 -15c-23.333 -10 -44.666 -24 -63.999 -42c-9.33301 -10 -17.5 -20.333 -24.5 -31s-13.167 -21.667 -18.5 -33
c-10 -25.333 -15 -51.333 -15 -78v-500c0 -26.667 5 -52.334 15 -77.001c5.33301 -12 11.5 -23.333 18.5 -34s15.167 -20.667 24.5 -30s19.333 -17.5 30 -24.5s22 -13.167 34 -18.5c24.667 -10 50.334 -15 77.001 -15c28 0 54 5 78 15c12.667 5.33301 24.167 11.5 34.5 18.5
s20.166 15.167 29.499 24.5s17.5 19.333 24.5 30s13.167 22 18.5 34z" />
    <glyph glyph-name="D" unicode="D" 
d="M525 250c0 -34 -6.33203 -66.6641 -18.999 -97.9971c-12 -29.333 -30 -55.333 -54 -78c-11.333 -12 -23.5 -22.333 -36.5 -31s-27.167 -16.334 -42.5 -23.001c-15.333 -7.33301 -31.166 -12.5 -47.499 -15.5s-33.166 -4.5 -50.499 -4.5v51c26.667 0 52.667 5 78 15
c12 5.33301 23.333 11.333 34 18s20.667 14.667 30 24c18 19.333 32 40.666 42 63.999c5.33301 12.667 9.33301 25.5 12 38.5s4 26.167 4 39.5v500c0 28 -5.33301 54 -16 78c-10 23.333 -24 44.666 -42 63.999c-9.33301 9.33301 -19.333 17.333 -30 24s-22 12.667 -34 18
c-26.667 10.667 -52.667 16 -78 16v50c17.333 0 34.166 -1.5 50.499 -4.5s32.166 -8.16699 47.499 -15.5c30.667 -12 57 -29.667 79 -53c11.333 -11.333 21.666 -23.5 30.999 -36.5s17 -27.167 23 -42.5s10.667 -31 14 -47s5 -32.667 5 -50v-1v-500zM76.001 51.0029h199v-51
h-199h-51v51v899v50h250v-50h-199v-899z" />
    <glyph glyph-name="E" unicode="E" horiz-adv-x="551" 
d="M76 525l450 -0.00195312v-49h-450v-226c0 -27.333 5 -53 15 -77c10 -23.333 24.667 -44.333 44 -63c18.667 -19.333 39.667 -34 63 -44c24 -10 49.667 -15 77 -15v-51c-32.667 0 -65 6.66699 -97 20c-15.333 6.66699 -29.5 14.334 -42.5 23.001s-25.5 18.667 -37.5 30
c-11.333 12 -21.333 24.5 -30 37.5s-16.334 27.167 -23.001 42.5c-13.333 32 -20 64 -20 96v1v500v1c0 33.333 6.66699 65.333 20 96c6.66699 15.333 14.334 29.5 23.001 42.5s18.667 25.5 30 37.5c12 11.333 24.5 21.333 37.5 30s27.167 16.334 42.5 23.001
c32 13.333 64.333 20 97 20v-51c-27.333 0 -53 -5 -77 -15c-23.333 -10 -44.333 -24.667 -63 -44c-19.333 -18.667 -34 -39.667 -44 -63c-10 -24 -15 -49.667 -15 -77v-225zM526 999.998v-51h-251v51h251zM275 50.998h251v-51h-251v51z" />
    <glyph glyph-name="F" unicode="F" 
d="M76 525l448.999 -0.000976562v-49h-449v-476h-51v750v2c0 32.667 6.66699 64.334 20 95.001c6 15.333 13.5 29.5 22.5 42.5s19.167 25.5 30.5 37.5c12 11.333 24.5 21.5 37.5 30.5s27.167 16.5 42.5 22.5c30.667 13.333 63 20 97 20v-51c-28 0 -54 -5 -78 -15
c-23.333 -10 -44.333 -24.333 -63 -43c-19.333 -20 -33.666 -41 -42.999 -63c-10 -24 -15 -50 -15 -78v-225zM524.999 999.999v-51h-250v51h250z" />
    <glyph glyph-name="G" unicode="G" horiz-adv-x="551" 
d="M526 250l-0.00195312 -2c0 -32.667 -6.66699 -64.334 -20 -95.001c-11.333 -28.667 -29.333 -55.334 -54 -80.001c-22 -23.333 -48.333 -41 -79 -53c-32 -13.333 -64.667 -20 -98 -20c-32.667 0 -65 6.66699 -97 20c-15.333 6 -29.5 13.5 -42.5 22.5
s-25.5 19.167 -37.5 30.5c-11.333 12 -21.5 24.5 -30.5 37.5s-16.5 27.167 -22.5 42.5c-13.333 30.667 -20 62.334 -20 95.001v2v499v1c0 32.667 6.66699 65 20 97c12 29.333 29.667 55.666 53 78.999c24.667 23.333 51.334 41.333 80.001 54c32 13.333 64.333 20 97 20
c33.333 0 66 -6.66699 98 -20c31.333 -13.333 57.666 -31.333 78.999 -54c23.333 -22.667 41.333 -49 54 -79c7.33301 -15.333 12.5 -31.166 15.5 -47.499s4.5 -33.166 4.5 -50.499h-50c0 25.333 -5.33301 51.333 -16 78c-5.33301 12 -11.5 23.167 -18.5 33.5
s-15.167 20.166 -24.5 29.499c-17.333 18 -38.666 32.333 -63.999 43c-23.333 10.667 -49.333 16 -78 16c-28 0 -53.667 -5.33301 -77 -16c-25.333 -10.667 -46.666 -25 -63.999 -43c-9.33301 -9.33301 -17.5 -19.166 -24.5 -29.499s-13.167 -21.5 -18.5 -33.5
c-10 -25.333 -15 -51.333 -15 -78v-499c0 -27.333 5 -53 15 -77s24.333 -45.333 43 -64s40 -33 64 -43s49.667 -15 77 -15c28 0 54 5 78 15s45.333 24.333 64 43s33 40 43 64c10.667 25.333 16 51 16 77v224h-200v50h250v-50v-224z" />
    <glyph glyph-name="H" unicode="H" 
d="M525 525v-50v0v-475h-51v475h-398v-475h-51v475v0v50v0v475h51v-475h398v475h51v-475v0v0z" />
    <glyph glyph-name="I" unicode="I" horiz-adv-x="100" 
d="M25 1000h50v-1000h-50v1000v0z" />
    <glyph glyph-name="J" unicode="J" horiz-adv-x="551" 
d="M526 249c-1.33301 -17.333 -3.33203 -33.832 -5.99902 -49.499s-7 -31.167 -13 -46.5c-14 -29.333 -32.333 -56 -55 -80c-23.333 -23.333 -50 -41 -80 -53c-30.667 -13.333 -63 -20 -97 -20s-66.333 6.66699 -97 20c-15.333 6 -29.5 13.5 -42.5 22.5
s-25.5 19.167 -37.5 30.5c-11.333 12 -21.5 24.5 -30.5 37.5s-16.5 27.167 -22.5 42.5c-12 28.667 -18.667 60.667 -20 96v1v248h51v-248c0 -13.333 1 -26.666 3 -39.999s5.66699 -25.666 11 -36.999c6 -12 12.5 -23.333 19.5 -34s15.167 -20.667 24.5 -30
s19.333 -17.5 30 -24.5s22 -13.5 34 -19.5c11.333 -5.33301 23.666 -9 36.999 -11s26.666 -3 39.999 -3c28.667 0 54.334 4.66699 77.001 14c25.333 12 47 26.667 65 44c17.333 17.333 31.333 38.666 42 63.999c5.33301 11.333 9.33301 23.666 12 36.999s4 26.666 4 39.999
v750h51v-750v-1z" />
    <glyph glyph-name="K" unicode="K" horiz-adv-x="549" 
d="M524 261l0.000976562 -261h-50v263c0 13.333 -1.33301 26.333 -4 39s-6.33398 24.667 -11.001 36c-5.33301 12 -11.5 23.333 -18.5 34s-15.167 21 -24.5 31c-9.33301 8.66699 -19.166 16.5 -29.499 23.5s-21.833 12.833 -34.5 17.5c-24.667 11.333 -50.667 17 -78 17
c-25.333 0 -51 -5.66699 -77 -17c-12 -4.66699 -23.167 -10.5 -33.5 -17.5s-20.166 -14.833 -29.499 -23.5c-9.33301 -10 -17.5 -20.333 -24.5 -31s-13.167 -22 -18.5 -34c-9.33301 -23.333 -14.666 -47.333 -15.999 -72v-266h-50v261v5v734h50v-559l408 318l33 -40
l-272 -212c5.33301 0.666992 10.333 1.16699 15 1.5s9.66699 0.5 15 0.5c17.333 0 34.166 -1.66699 50.499 -5s32.166 -7.66602 47.499 -12.999c15.333 -6.66699 29.666 -14.334 42.999 -23.001s25.666 -19 36.999 -31c22.667 -22.667 40.334 -49.334 53.001 -80.001
c12.667 -29.333 19 -58.666 19 -87.999v-4v-4z" />
    <glyph glyph-name="L" unicode="L" 
d="M525 250c0 -17.333 -1.33203 -34.0039 -3.99902 -50.0039s-7.66699 -32 -15 -48c-6 -14.667 -13.5 -28.667 -22.5 -42s-19.167 -25.666 -30.5 -36.999c-11.333 -12 -23.666 -22.333 -36.999 -31s-27.333 -16 -42 -22c-32 -14 -64.667 -21 -98 -21
c-34.667 0 -67.334 7 -98.001 21c-31.333 12.667 -58 30.334 -80 53.001c-11.333 11.333 -21.333 23.666 -30 36.999s-16.667 27.333 -24 42c-12.667 32.667 -19 64.334 -19 95.001v3v750h51v-750c0 -14 1.16699 -27.5 3.5 -40.5s6.16602 -25.5 11.499 -37.5
c10.667 -25.333 25 -46.666 43 -63.999c18 -18 39.333 -32.667 64 -44c24.667 -9.33301 50.667 -14 78 -14c26 0 52 4.66699 78 14c22 10.667 43 25.334 63 44.001c18.667 18.667 33 40 43 64c10.667 25.333 16 51.333 16 78h49z" />
    <glyph glyph-name="M" unicode="M" horiz-adv-x="998" 
d="M973 0l-49.998 -0.00390625v750c0 27.333 -5 53 -15 77c-10 24.667 -25 45.667 -45 63c-16 19.333 -36.333 34 -61 44c-13.333 5.33301 -26.333 9.16602 -39 11.499s-25.667 3.5 -39 3.5c-14 0 -27.5 -1.16699 -40.5 -3.5s-26.167 -6.16602 -39.5 -11.499
c-11.333 -5.33301 -22.166 -11.666 -32.499 -18.999s-19.833 -15.666 -28.5 -24.999c-18.667 -16.667 -33.334 -37.667 -44.001 -63c-10 -24 -15 -49.667 -15 -77v-750h-50v750c0 28.667 -5.66699 54.334 -17 77.001c-4.66699 13.333 -10.667 25 -18 35s-15 19.333 -23 28
c-20 20 -41.667 34.667 -65 44c-12.667 5.33301 -25.334 9.16602 -38.001 11.499s-25.334 3.5 -38.001 3.5c-14.667 0 -28.167 -1.16699 -40.5 -3.5s-24.5 -6.16602 -36.5 -11.499c-25.333 -10 -47.333 -24.667 -66 -44c-8.66699 -8.66699 -16.667 -18 -24 -28
s-13.666 -21.667 -18.999 -35c-8.66699 -23.333 -13 -48 -13 -74v-753h-51v750c0 32.667 6.66699 65 20 97c5.33301 15.333 12.5 29.5 21.5 42.5s19.167 25.833 30.5 38.5c11.333 10.667 23.666 20.5 36.999 29.5s27.666 16.5 42.999 22.5c32 13.333 64.667 20 98 20
c32.667 0 64.334 -6.66699 95.001 -20c15.333 -6 29.833 -13.5 43.5 -22.5s26.167 -18.833 37.5 -29.5c9.33301 -10.667 18 -21.667 26 -33s15 -23.666 21 -36.999c14 26.667 30 50 48 70c11.333 10.667 23.833 20.5 37.5 29.5s28.167 16.5 43.5 22.5
c32 13.333 64.333 20 97 20c32 0 64 -6.66699 96 -20c15.333 -6 29.666 -13.5 42.999 -22.5s26 -18.833 38 -29.5c11.333 -12.667 21.333 -25.5 30 -38.5s16.334 -27.167 23.001 -42.5c6 -15.333 10.667 -31 14 -47s5 -32.667 5 -50v-750z" />
    <glyph glyph-name="N" unicode="N" horiz-adv-x="549" 
d="M524 0l-49.998 0.000976562v750c0 25.333 -5.33301 51.333 -16 78c-10 23.333 -24.333 44.333 -43 63c-9.33301 9.33301 -19.333 17.5 -30 24.5s-21.667 13.167 -33 18.5c-26.667 10.667 -52.334 16 -77.001 16c-26 0 -51.667 -5.33301 -77 -16s-46.666 -25 -63.999 -43
c-9.33301 -9.33301 -17.5 -19.333 -24.5 -30s-13.167 -21.667 -18.5 -33c-9.33301 -22 -14.666 -46.333 -15.999 -73v-755h-50v750v5v12c1.33301 14 3.66602 27.667 6.99902 41s7.66602 26.333 12.999 39c12 30 29.667 56.667 53 80c22.667 22.667 49.334 40.667 80.001 54
c29.333 12.667 61.666 19 96.999 19c33.333 0 65.666 -6.33301 96.999 -19c30 -13.333 56.333 -31.333 79 -54s40.667 -49.334 54 -80.001c12.667 -29.333 19 -61.333 19 -96v-1v-750z" />
    <glyph glyph-name="O" unicode="O" horiz-adv-x="552" 
d="M527 249c-1.33301 -32 -7.99902 -63.998 -19.999 -95.998c-13.333 -30 -31.333 -56.333 -54 -79c-11.333 -12 -23.666 -22.333 -36.999 -31s-27.666 -16.334 -42.999 -23.001c-32 -13.333 -64.333 -20 -97 -20s-65.334 6.66699 -98.001 20
c-14.667 6.66699 -28.667 14.334 -42 23.001s-25.666 19 -36.999 31c-12 11.333 -22.333 23.666 -31 36.999s-16.334 27.333 -23.001 42c-6.66699 15.333 -11.5 31.166 -14.5 47.499s-4.83301 32.5 -5.5 48.5v2v499v1c0 32 6.66699 64 20 96
c13.333 30.667 31.333 57.334 54 80.001c11.333 11.333 23.666 21.5 36.999 30.5s27.333 16.833 42 23.5c16 6 32 10.667 48 14s32.667 5 50 5c32 0 64.333 -6.33301 97 -19c15.333 -6.66699 29.666 -14.5 42.999 -23.5s25.666 -19.167 36.999 -30.5
c23.333 -24.667 41.333 -51.334 54 -80.001c12.667 -32 19.334 -64 20.001 -96v-1v-499v-2zM418.001 109.002c8.66699 9.33301 16.501 19.333 23.501 30s13.167 22 18.5 34c10.667 26.667 16 52.667 16 78v499c0 24.667 -5.33301 50.334 -16 77.001
c-10 23.333 -24 44.666 -42 63.999c-19.333 18.667 -40.666 33 -63.999 43c-26 10 -52 15 -78 15c-27.333 0 -53.333 -5 -78 -15c-24 -10 -45.333 -24.333 -64 -43c-9.33301 -9.33301 -17.5 -19.333 -24.5 -30s-13.167 -22 -18.5 -34c-10 -25.333 -15 -51 -15 -77v-499
c0 -27.333 5 -53.333 15 -78c11.333 -24 25.666 -45.333 42.999 -64c18.667 -17.333 40 -31.666 64 -42.999c24.667 -10 50.667 -15 78 -15c26 0 52 5 78 15c23.333 11.333 44.666 25.666 63.999 42.999z" />
    <glyph glyph-name="P" unicode="P" 
d="M525 498c0 -32.667 -6.66602 -64.333 -19.999 -95c-11.333 -28.667 -29 -55 -53 -79c-22.667 -22.667 -49.334 -40.667 -80.001 -54c-15.333 -6.66699 -31 -11.5 -47 -14.5s-32.333 -4.83301 -49 -5.5h-201v-250h-50v1000h1h249h4c32 0 63 -6.66699 93 -20
c30 -12 56.667 -29.667 80 -53s41 -50 53 -80c13.333 -30.667 20 -62.667 20 -96v-1v-250v-2zM416.001 359.001c9.33301 9.33301 17.5 19.333 24.5 30s13.167 22 18.5 34c10.667 25.333 16 51 16 77v250c0 25.333 -5.33301 51.333 -16 78c-10 23.333 -24.333 44.333 -43 63
c-9.33301 9.33301 -19.333 17.5 -30 24.5s-21.667 13.167 -33 18.5c-26.667 10.667 -52.667 16 -78 16h-200v-649h200c26.667 0 52.667 5 78 15c23.333 10 44.333 24.333 63 43z" />
    <glyph glyph-name="Q" unicode="Q" 
d="M525 249c0 -16.667 -1.33301 -32.833 -4 -48.5s-7.33398 -31.167 -14.001 -46.5c-6 -15.333 -13.5 -29.5 -22.5 -42.5s-19.5 -25.5 -31.5 -37.5c-11.333 -12 -23.666 -22.333 -36.999 -31s-27.333 -16.334 -42 -23.001c-32.667 -13.333 -65.334 -20 -98.001 -20
s-65 6.66699 -97 20c-30 12.667 -56.667 30.667 -80 54s-41.333 50 -54 80c-6.66699 15.333 -11.5 30.833 -14.5 46.5s-4.83301 31.834 -5.5 48.501v2v498v1c0 33.333 6.66699 65.333 20 96c12.667 30 30.667 56.667 54 80c12 11.333 24.5 21.5 37.5 30.5
s27.167 16.833 42.5 23.5c32 13.333 64.333 20 97 20s65.334 -6.66699 98.001 -20c14.667 -6.66699 28.667 -14.5 42 -23.5s25.666 -19.167 36.999 -30.5c12 -12 22.5 -24.5 31.5 -37.5s16.5 -27.167 22.5 -42.5c6.66699 -15.333 11.334 -31 14.001 -47s4 -32.333 4 -49v-1
v-498v-2zM418 109.001c9.33301 9.33301 17.499 19.333 24.499 30s13.167 22 18.5 34c10.667 26.667 16 52.667 16 78v498c0 25.333 -5.33301 51.333 -16 78c-11.333 24 -25.666 45.333 -42.999 64c-20 18 -41.333 32.333 -64 43c-25.333 10 -51.333 15 -78 15
c-27.333 0 -53.333 -5 -78 -15c-24 -10.667 -45.333 -25 -64 -43c-8.66699 -9.33301 -16.667 -19.333 -24 -30s-13.666 -22 -18.999 -34c-10 -25.333 -15 -51.333 -15 -78v-498c0 -27.333 5 -53.333 15 -78c10.667 -24 25 -45.333 43 -64c18.667 -18 40 -32.333 64 -43
c8.66699 -3.33301 17.167 -6.16602 25.5 -8.49902s17.166 -3.83301 26.499 -4.5v196h52v-196c9.33301 0.666992 18 2.16699 26 4.5s16.667 5.16602 26 8.49902c22.667 10.667 44 25 64 43z" />
    <glyph glyph-name="R" unicode="R" 
d="M525 35v-35h-34l-256 250h-160v-250h-50v1000h1h249h3c32.667 -0.666992 64 -7.33398 94 -20.001c15.333 -6.66699 29.666 -14.334 42.999 -23.001s25.666 -18.667 36.999 -30c11.333 -12 21.5 -24.5 30.5 -37.5s16.5 -27.167 22.5 -42.5
c13.333 -30.667 20 -62.667 20 -96v-1v-250v-2c0 -31.333 -6.66699 -63 -20 -95c-6 -15.333 -13.5 -29.666 -22.5 -42.999s-19.167 -25.666 -30.5 -36.999s-23.666 -21.5 -36.999 -30.5s-27.666 -16.5 -42.999 -22.5c-21.333 -9.33301 -43.333 -15.333 -66 -18zM75 301
h200.001c26.667 0 52.667 5 78 15c23.333 10 44.333 24.333 63 43c19.333 20 33.666 41 42.999 63c5.33301 12.667 9.16602 25.5 11.499 38.5s3.5 26.167 3.5 39.5v250c0 13.333 -1.16699 26.5 -3.5 39.5s-6.16602 25.5 -11.499 37.5c-10 24 -24.333 45.333 -43 64
c-9.33301 9.33301 -19.333 17.5 -30 24.5s-21.667 13.167 -33 18.5c-26.667 10.667 -52.667 16 -78 16h-200v-649z" />
    <glyph glyph-name="S" unicode="S" horiz-adv-x="551" 
d="M526 249l-0.0078125 -1.99902c-1.33301 -34 -8 -65.333 -20 -94c-6 -15.333 -13.667 -29.5 -23 -42.5s-19.666 -25.167 -30.999 -36.5c-23.333 -24 -49.666 -42 -78.999 -54c-32 -13.333 -64.667 -20 -98 -20c-32.667 0 -65 6.66699 -97 20
c-29.333 12 -55.666 30 -78.999 54c-11.333 11.333 -21.666 23.5 -30.999 36.5s-17 27.167 -23 42.5c-13.333 32 -20 64.333 -20 97h51c0 -27.333 5 -53 15 -77c5.33301 -12 11.5 -23.333 18.5 -34s15.167 -20.667 24.5 -30c18.667 -17.333 40 -31.666 64 -42.999
c24 -10 49.667 -15 77 -15c26.667 0 52.667 5 78 15c24.667 11.333 45.667 25.666 63 42.999c18 17.333 32.333 38.666 43 63.999c10.667 23.333 16 48.666 16 75.999v19c0 28 -5.33301 54 -16 78c-10 24 -24.333 45.333 -43 64c-17.333 18.667 -38.333 32.667 -63 42
c-26 11.333 -52 17 -78 17c-34.667 0 -67 6.33301 -97 19c-29.333 12.667 -55.666 30.667 -78.999 54c-11.333 11.333 -21.666 23.666 -30.999 36.999s-17 27.666 -23 42.999c-13.333 30.667 -20 63 -20 97v38c0.666992 30 7.33398 60 20.001 90
c6 15.333 13.667 29.5 23 42.5s19.666 25.167 30.999 36.5s23.5 21.666 36.5 30.999s27.167 17 42.5 23c32 13.333 64.333 20 97 20c33.333 0 66 -6.66699 98 -20c15.333 -6 29.5 -13.667 42.5 -23s25.167 -19.666 36.5 -30.999s21.666 -23.5 30.999 -36.5
s17 -27.167 23 -42.5c13.333 -32 20 -64.333 20 -97h-51c0 13.333 -1.33301 26.5 -4 39.5s-6.66699 25.5 -12 37.5c-10 24 -24.333 45.333 -43 64c-17.333 17.333 -38.333 31.666 -63 42.999c-25.333 10 -51.333 15 -78 15c-27.333 0 -53 -5 -77 -15
c-24 -11.333 -45.333 -25.666 -64 -42.999c-17.333 -18.667 -31.666 -40 -42.999 -64c-10 -24 -15 -49.667 -15 -77v-36c0 -12.667 1.33301 -25.167 4 -37.5s6.33398 -24.166 11.001 -35.499c5.33301 -11.333 11.5 -22.5 18.5 -33.5s15.167 -21.167 24.5 -30.5
c18.667 -17.333 40 -31.666 64 -42.999c24 -10 49.667 -15 77 -15c34 0 66.333 -6.66699 97 -20c30.667 -12 57.334 -30 80.001 -54c24 -23.333 42 -49.666 54 -78.999c12.667 -30 19 -62.667 19 -98l1 -18v-1z" />
    <glyph glyph-name="T" unicode="T" horiz-adv-x="477" 
d="M452 950l-178.999 -0.000976562v-950h-51v950h-22c-26.667 0 -52 -5 -76 -15c-24.667 -11.333 -45.667 -25.666 -63 -42.999l-36 35c23.333 23.333 49.666 41.333 78.999 54c30 12.667 62.333 19 97 19h251v-50z" />
    <glyph glyph-name="U" unicode="U" 
d="M525 249c-0.666992 -32.667 -7.33398 -65.001 -20.001 -97.001c-13.333 -29.333 -31.333 -55.666 -54 -78.999c-11.333 -11.333 -23.666 -21.333 -36.999 -30s-27.333 -16.334 -42 -23.001c-32.667 -13.333 -65 -20 -97 -20c-33.333 0 -66 6.66699 -98 20
c-30 13.333 -56.333 31 -79 53c-11.333 12 -21.333 24.667 -30 38s-16.334 27 -23.001 41c-13.333 32 -20 64.667 -20 98v750h50v-750c0 -26 5.33301 -51.667 16 -77c10 -24.667 24.333 -46 43 -64c18 -19.333 39.333 -33.666 64 -42.999c25.333 -10.667 51 -16 77 -16
c24.667 0 50.334 5.33301 77.001 16c24 10 45.333 24.333 64 43c18 18 32 39.333 42 64c10.667 25.333 16 51 16 77v750h51v-750v-1z" />
    <glyph glyph-name="V" unicode="V" horiz-adv-x="551" 
d="M526 250c0 -34.667 -6.33203 -66.998 -18.999 -96.998c-12 -30 -29.667 -56.667 -53 -80s-50 -41 -80 -53c-15.333 -7.33301 -31 -12.5 -47 -15.5s-32.333 -4.5 -49 -4.5h-226h-27v1000h51v-949h201c13.333 0 26.5 1.16699 39.5 3.5s25.833 6.16602 38.5 11.499
c11.333 5.33301 22.333 11.5 33 18.5s20.667 15.167 30 24.5c17.333 17.333 31.666 38.666 42.999 63.999c10 24 15 49.667 15 77v750h50v-750v0z" />
    <glyph glyph-name="W" unicode="W" horiz-adv-x="998" 
d="M973 248c0 -16.667 -1.5 -32.9971 -4.5 -48.9971s-8.16699 -31.333 -15.5 -46c-12 -29.333 -29.333 -56 -52 -80c-11.333 -10.667 -23.833 -20.667 -37.5 -30s-27.834 -17 -42.501 -23c-30.667 -13.333 -63 -20 -97 -20c-32.667 0 -65 6.66699 -97 20
c-15.333 6 -29.666 13.667 -42.999 23s-25.666 19.333 -36.999 30c-20 21.333 -35.667 43.666 -47 66.999c-6 -12.667 -13.167 -24.5 -21.5 -35.5s-17.166 -21.5 -26.499 -31.5c-12 -10.667 -24.5 -20.667 -37.5 -30s-27.167 -17 -42.5 -23
c-15.333 -6.66699 -31 -11.667 -47 -15s-33 -5 -51 -5c-33.333 0 -65 6.66699 -95 20c-15.333 6 -29.666 13.667 -42.999 23s-25.666 19.333 -36.999 30c-22.667 22.667 -40.667 49.334 -54 80.001c-6 15.333 -10.833 30.833 -14.5 46.5s-5.5 32.167 -5.5 49.5v751h52v-753
c0 -24.667 4.66699 -50 14 -76c11.333 -24 25.666 -44.667 42.999 -62c10 -9.33301 20 -17.5 30 -24.5s20.667 -13.167 32 -18.5c13.333 -5.33301 26.333 -9 39 -11s25.667 -3 39 -3c29.333 0 55.333 4.66699 78 14c12.667 5.33301 24.167 11.5 34.5 18.5
s20.166 15.167 29.499 24.5s17.5 19.166 24.5 29.499s13.167 21.166 18.5 32.499c10 26 15 52 15 78v751h51v-751c0 -13.333 1.16699 -26.333 3.5 -39s6.16602 -25.667 11.499 -39c5.33301 -11.333 11.666 -22.166 18.999 -32.499s15 -20.166 23 -29.499
c10 -9.33301 20.167 -17.5 30.5 -24.5s21.5 -13.167 33.5 -18.5c23.333 -9.33301 49.333 -14 78 -14s54.667 4.66699 78 14c24 11.333 44.667 25.666 62 42.999c9.33301 9.33301 17.5 19.166 24.5 29.499s13.167 21.166 18.5 32.499c10 26 15 52 15 78v751h51v-751v-1z" />
    <glyph glyph-name="X" unicode="X" horiz-adv-x="499" 
d="M290 827c-10 -24 -14.999 -49.668 -14.999 -77.001v-500c0 -27.333 5 -53 15 -77c5.33301 -12 11.5 -23.333 18.5 -34s15.167 -20.667 24.5 -30c17.333 -18 38.666 -32.333 63.999 -43c23.333 -10.667 49 -16 77 -16v-50c-32.667 0 -65.334 6.66699 -98.001 20
c-14.667 6.66699 -28.667 14.334 -42 23.001s-25.666 18.667 -36.999 30c-9.33301 10 -18.166 20.5 -26.499 31.5s-15.166 22.833 -20.499 35.5c-6.66699 -12.667 -13.834 -24.5 -21.501 -35.5s-16.5 -21.5 -26.5 -31.5c-22.667 -22 -49 -39.667 -79 -53
c-32.667 -13.333 -65.334 -20 -98.001 -20v50c28 0 53.667 5.33301 77 16c25.333 10.667 46.666 25 63.999 43c18.667 18.667 33 40 43 64c5.33301 12 9.16602 24.5 11.499 37.5s3.5 26.167 3.5 39.5v500c0 13.333 -1.16699 26.5 -3.5 39.5s-6.16602 25.5 -11.499 37.5
c-10 24 -24.333 45.333 -43 64c-17.333 18 -38.666 32.333 -63.999 43c-23.333 10.667 -49 16 -77 16v50c34 0 66.667 -6.33301 98 -19c28.667 -12.667 55 -30.667 79 -54c10 -9.33301 18.833 -19.666 26.5 -30.999s14.834 -23.333 21.501 -36
c5.33301 12.667 12.166 24.667 20.499 36s17.166 21.666 26.499 30.999c22.667 22.667 49 40.667 79 54c31.333 12.667 64 19 98 19v-50c-28 0 -53.667 -5.33301 -77 -16c-25.333 -10.667 -46.666 -25 -63.999 -43c-9.33301 -9.33301 -17.5 -19.333 -24.5 -30
s-13.167 -22 -18.5 -34z" />
    <glyph glyph-name="Y" unicode="Y" 
d="M525 749c0 -17.333 -1.49805 -34.168 -4.49805 -50.501s-8.16699 -32.166 -15.5 -47.499c-12 -29.333 -29.667 -55.666 -53 -78.999c-11.333 -11.333 -23.666 -21.5 -36.999 -30.5s-27.333 -16.833 -42 -23.5c-22.667 -10 -47 -16 -73 -18v-500h-50v500
c-24.667 2 -49 8 -73 18c-30 13.333 -56.333 31.333 -79 54c-23.333 23.333 -41 49.666 -53 78.999c-13.333 32 -20 64.667 -20 98v251h50v-251c0 -25.333 5.33301 -51.333 16 -78c11.333 -24.667 25.666 -45.667 42.999 -63c9.33301 -9.33301 19.166 -17.5 29.499 -24.5
s21.5 -13.167 33.5 -18.5c24 -10.667 50 -16 78 -16c26.667 0 52.667 5.33301 78 16c23.333 10 44.333 24.333 63 43c18.667 17.333 33 38.333 43 63c9.33301 23.333 14.666 48.333 15.999 75h-1v254h51v-251v0z" />
    <glyph glyph-name="Z" unicode="Z" horiz-adv-x="549" 
d="M524 1000l0.00195312 -276.003c0 -35.333 -6.33301 -67.666 -19 -96.999c-6.66699 -15.333 -14.5 -29.666 -23.5 -42.999s-19.167 -25.666 -30.5 -36.999c-24 -22.667 -50.333 -40 -79 -52c-32 -13.333 -64.333 -20 -97 -20c-27.333 0 -53.333 -5 -78 -15
c-25.333 -11.333 -46.333 -26 -63 -44c-20 -18.667 -34.333 -39.334 -43 -62.001c-10 -24 -15 -49.667 -15 -77v-226h448v-51h-448h-51v276v1v1c0 16.667 1.66699 32.834 5 48.501s8 31.167 14 46.5c13.333 30.667 31.333 57.334 54 80.001
c11.333 11.333 23.666 21.5 36.999 30.5s27.666 16.167 42.999 21.5c30.667 13.333 63 20 97 20c26 0 51.667 5 77 15c24.667 11.333 45.667 25.666 63 42.999c18.667 18.667 33 39.667 43 63c10 24.667 15 50.667 15 78v226h-449v50h449h51z" />
    <glyph glyph-name="underscore" unicode="_" horiz-adv-x="465" 
d="M439 51v-51h-414v51h414z" />
    <glyph glyph-name="a" unicode="a" 
d="M525 243l-0.000976562 -243h-51v100c-22.667 -30 -51.167 -54.167 -85.5 -72.5s-72.166 -27.5 -113.499 -27.5c-34.667 0 -67.167 6.5 -97.5 19.5s-56.833 30.833 -79.5 53.5s-40.5 49.167 -53.5 79.5s-19.5 62.833 -19.5 97.5s6.5 67.167 19.5 97.5
s30.833 56.833 53.5 79.5s49.167 40.5 79.5 53.5s62.833 19.5 97.5 19.5s67.167 -6.5 97.5 -19.5s56.833 -30.833 79.5 -53.5s40.5 -49.167 53.5 -79.5s19.5 -62.833 19.5 -97.5v-7zM458.999 172c4.66699 11.333 8.33496 23.001 11.002 35.001s4 24.333 4 37v6
c0 26.667 -5 52.667 -15 78c-5.33301 12 -11.5 23.333 -18.5 34s-15.167 20 -24.5 28c-8.66699 9.33301 -18.334 17.666 -29.001 24.999s-22 13.666 -34 18.999c-25.333 10 -51.333 15 -78 15c-27.333 0 -53.333 -5 -78 -15c-25.333 -11.333 -46.333 -26 -63 -44
c-9.33301 -8 -17.5 -17.333 -24.5 -28s-13.167 -22 -18.5 -34c-10 -25.333 -15 -51.333 -15 -78c0 -27.333 5 -53.333 15 -78c11.333 -24.667 25.666 -45.667 42.999 -63s38.333 -31.666 63 -42.999c12.667 -5.33301 25.5 -9.16602 38.5 -11.499s26.167 -3.5 39.5 -3.5
s26.5 1.16699 39.5 3.5s25.833 6.16602 38.5 11.499c12 5.33301 23.333 11.5 34 18.5s20.334 15.167 29.001 24.5c17.333 17.333 31.666 38.333 42.999 63z" />
    <glyph glyph-name="b" unicode="b" 
d="M275 500c34.667 0 67.165 -6.5 97.498 -19.5s56.833 -30.833 79.5 -53.5s40.5 -49.167 53.5 -79.5s19.5 -62.833 19.5 -97.5s-6.5 -67.167 -19.5 -97.5s-30.833 -56.833 -53.5 -79.5s-49.167 -40.5 -79.5 -53.5s-62.833 -19.5 -97.5 -19.5s-67.167 6.5 -97.5 19.5
s-56.833 30.833 -79.5 53.5s-40.5 49.167 -53.5 79.5s-19.5 62.833 -19.5 97.5v750h51v-599c22.667 30 51.334 54 86.001 72s72.334 27 113.001 27zM415.998 109c18.667 18.667 33.001 39.666 43.001 62.999c5.33301 12.667 9.33301 25.5 12 38.5s4 26.167 4 39.5
c0 28 -5.33301 54 -16 78c-10 24.667 -24.333 45.667 -43 63c-17.333 18.667 -38.333 33 -63 43c-24 10.667 -50 16 -78 16c-13.333 0 -26.5 -1.33301 -39.5 -4s-25.833 -6.66699 -38.5 -12c-23.333 -10 -44.333 -24.333 -63 -43
c-9.33301 -9.33301 -17.5 -19.166 -24.5 -29.499s-13.167 -21.5 -18.5 -33.5c-10 -25.333 -15 -51.333 -15 -78c0 -27.333 5 -53.333 15 -78c9.33301 -22 23.666 -43 42.999 -63c18.667 -18.667 39.667 -33 63 -43c24.667 -10 50.667 -15 78 -15c26.667 0 52.667 5 78 15
c24.667 10 45.667 24.333 63 43z" />
    <glyph glyph-name="c" unicode="c" horiz-adv-x="476" 
d="M352 66c26 11.333 46.999 25.999 62.999 43.999l36 -36c-11.333 -12 -23.666 -22.333 -36.999 -31s-27.333 -16.334 -42 -23.001c-32 -13.333 -64.333 -20 -97 -20c-33.333 0 -66 6.66699 -98 20c-14.667 6.66699 -28.5 14.334 -41.5 23.001s-25.5 19 -37.5 31
c-11.333 11.333 -21.5 23.666 -30.5 36.999s-16.833 27 -23.5 41c-12.667 30 -19 62.667 -19 98s6.33301 68 19 98c12.667 28.667 30.667 54.667 54 78c24 24 50.333 42 79 54c32 13.333 64.667 20 98 20c32.667 0 65 -6.66699 97 -20c30 -12.667 56.333 -30.667 79 -54
l-36 -35c-16 17.333 -36.667 31.666 -62 42.999c-25.333 10 -51.333 15 -78 15c-27.333 0 -53.333 -5 -78 -15c-12 -5.33301 -23.333 -11.5 -34 -18.5s-20.334 -15.167 -29.001 -24.5c-9.33301 -9.33301 -17.5 -19.166 -24.5 -29.499s-13.167 -21.5 -18.5 -33.5
c-10 -25.333 -15 -51.333 -15 -78c0 -27.333 5 -53.333 15 -78c10 -23.333 24.333 -44 43 -62c8.66699 -9.33301 18.334 -17.666 29.001 -24.999s22 -13.666 34 -18.999c24.667 -10 50.667 -15 78 -15s53 5 77 15z" />
    <glyph glyph-name="d" unicode="d" 
d="M525 250c0 -34.667 -6.49805 -67.167 -19.498 -97.5s-30.833 -56.833 -53.5 -79.5s-49.167 -40.5 -79.5 -53.5s-62.833 -19.5 -97.5 -19.5s-67.167 6.5 -97.5 19.5s-56.833 30.833 -79.5 53.5s-40.5 49.167 -53.5 79.5s-19.5 62.833 -19.5 97.5s6.5 67.167 19.5 97.5
s30.833 56.833 53.5 79.5s49.167 40.5 79.5 53.5s62.833 19.5 97.5 19.5c41.333 0 79.166 -9 113.499 -27s63.166 -42.333 86.499 -73v600h50v-750zM459.002 172c10.667 24 16 49.999 16 77.999s-5.33301 54 -16 78c-10 24 -24 45 -42 63c-18.667 18.667 -40 33 -64 43
c-24 10.667 -50 16 -78 16s-54 -5.33301 -78 -16c-11.333 -5.33301 -22.333 -11.5 -33 -18.5s-20.667 -15.167 -30 -24.5s-17.5 -19.166 -24.5 -29.499s-13.167 -21.5 -18.5 -33.5c-10.667 -26.667 -16 -52.667 -16 -78s5.33301 -51.333 16 -78
c10 -23.333 24.333 -44.333 43 -63c9.33301 -9.33301 19.333 -17.5 30 -24.5s21.667 -13.167 33 -18.5c24 -10.667 50 -16 78 -16s54 5.33301 78 16c24 10 45.333 24.333 64 43c17.333 17.333 31.333 38.333 42 63z" />
    <glyph glyph-name="e" unicode="e" horiz-adv-x="547" 
d="M498 223l-420.998 0.000976562c1.33301 -8.66699 3 -17.334 5 -26.001s4.66699 -17 8 -25c5.33301 -12 11.5 -23.333 18.5 -34s15.167 -20.667 24.5 -30s19.333 -17.5 30 -24.5s22 -13.167 34 -18.5c24 -10 49.667 -15 77 -15s53.666 5 78.999 15
c22 9.33301 43 23.666 63 42.999l36 -36c-23.333 -22.667 -50 -40.334 -80 -53.001s-62.667 -19 -98 -19c-34.667 0 -67 6.33301 -97 19s-56.667 30.334 -80 53.001c-22.667 23.333 -40.334 50 -53.001 80s-19 62.333 -19 97c0 35.333 6.33301 68 19 98
s30.334 56.667 53.001 80c23.333 22.667 50 40.334 80 53.001c32 13.333 64.333 20 97 20c33.333 0 66 -6.66699 98 -20c15.333 -6.66699 29.666 -14.334 42.999 -23.001s25.666 -18.667 36.999 -30c22.667 -23.333 40.334 -50 53.001 -80
c13.333 -30.667 20 -63.334 20 -98.001c0 -5.33301 -0.166992 -9.66602 -0.5 -12.999s-0.5 -7.66602 -0.5 -12.999h-26zM133.002 391.001c-19.333 -20 -33.667 -40.999 -43 -62.999c-3.33301 -8.66699 -6 -17.334 -8 -26.001s-3.66699 -17.667 -5 -27h396
c-2 17.333 -6.66699 35 -14 53c-10 23.333 -24.333 44.333 -43 63s-39.667 33 -63 43c-24 10 -50.333 15 -79 15c-27.333 0 -53 -5 -77 -15s-45.333 -24.333 -64 -43z" />
    <glyph glyph-name="f" unicode="f" horiz-adv-x="300" 
d="M279 981c15.333 6 31.168 10.666 47.501 13.999s33.166 5 50.499 5v-50c-26.667 0 -52.667 -5.33301 -78 -16c-12 -5.33301 -23.333 -11.5 -34 -18.5s-20.667 -15.167 -30 -24.5s-17.5 -19.333 -24.5 -30s-13.167 -21.667 -18.5 -33c-10 -24 -15 -50 -15 -78v-474h98v-51
h-98v-225h-50v225h-102v51h102v476c0 34 6.33301 65.667 19 95c13.333 30.667 31.333 57.334 54 80.001s49 40.667 79 54z" />
    <glyph glyph-name="g" unicode="g" 
d="M525 -249c0 -16 -1.50195 -32.499 -4.50195 -49.499s-7.83301 -33.167 -14.5 -48.5c-6.66699 -14.667 -14.5 -28.667 -23.5 -42s-19.5 -25.666 -31.5 -36.999c-20.667 -22.667 -47 -40.667 -79 -54c-15.333 -6.66699 -31.166 -11.5 -47.499 -14.5
s-33.166 -4.5 -50.499 -4.5c-16 0 -32.333 1.5 -49 4.5s-32.667 7.83301 -48 14.5c-30.667 13.333 -57.334 31.333 -80.001 54s-40.667 49 -54 79c-12.667 32.667 -19 65.334 -19 98.001c0 17.333 1.66699 34.166 5 50.499s8 32.166 14 47.499
c6.66699 15.333 14.5 29.666 23.5 42.999s19.167 25.333 30.5 36l36 -35c-17.333 -19.333 -31.666 -40.333 -42.999 -63c-10.667 -25.333 -16 -51.666 -16 -78.999c0 -26 5.33301 -52 16 -78c11.333 -22.667 25.666 -43.667 42.999 -63
c19.333 -17.333 40.333 -31.666 63 -42.999c13.333 -6 26.333 -10.167 39 -12.5s25.667 -3.5 39 -3.5c14.667 0 28.167 1.16699 40.5 3.5s25.166 6.5 38.499 12.5c11.333 5.33301 22.333 11.666 33 18.999s20.667 15.333 30 24c18.667 19.333 33 40.333 43 63
c6 13.333 10.167 26.166 12.5 38.499s3.5 25.5 3.5 39.5v346c-22 -30 -50.5 -53.667 -85.5 -71s-73.5 -26 -115.5 -26c-34 0 -66.167 6.5 -96.5 19.5s-56.833 30.833 -79.5 53.5s-40.5 49.167 -53.5 79.5s-19.5 62.833 -19.5 97.5s6.5 67.167 19.5 97.5
s30.833 56.833 53.5 79.5s49.167 40.5 79.5 53.5s62.5 19.5 96.5 19.5c34.667 0 67.334 -6.5 98.001 -19.5s57.334 -30.833 80.001 -53.5s40.5 -49.167 53.5 -79.5s19.5 -62.833 19.5 -97.5v-8v-491zM458.998 171.001c6 12 10.166 23.998 12.499 35.998s3.5 24.333 3.5 37v6
c0 13.333 -1.16699 26.333 -3.5 39s-6.5 25.667 -12.5 39c-9.33301 22 -23.666 43 -42.999 63c-18.667 17.333 -39.667 31.666 -63 42.999c-24.667 11.333 -51 17 -79 17c-26.667 0 -52.667 -5.66699 -78 -17c-11.333 -5.33301 -22.166 -11.666 -32.499 -18.999
s-20.5 -15.333 -30.5 -24c-8.66699 -9.33301 -16.5 -19.333 -23.5 -30s-13.167 -21.667 -18.5 -33c-11.333 -24.667 -17 -50.667 -17 -78s5.66699 -53.666 17 -78.999c10 -22 24 -43 42 -63c21.333 -19.333 42.333 -33.666 63 -42.999c13.333 -6 26.333 -10 39 -12
s25.667 -3 39 -3c14.667 0 28.167 1 40.5 3s25.166 6 38.499 12c23.333 10 44.333 24.333 63 43c18.667 19.333 33 40.333 43 63z" />
    <glyph glyph-name="h" unicode="h" 
d="M525 0l-49.9961 -0.000976562v250c0 13.333 -1.5 26.5 -4.5 39.5s-6.83301 25.833 -11.5 38.5c-10.667 22.667 -25 43.667 -43 63s-39.333 34 -64 44c-12 4.66699 -24.5 8.33398 -37.5 11.001s-26.167 4 -39.5 4s-26.5 -1.33301 -39.5 -4s-26.167 -6.33398 -39.5 -11.001
c-22.667 -10 -43 -24.667 -61 -44c-19.333 -18.667 -34 -39.667 -44 -63c-4.66699 -11.333 -8.33398 -23.166 -11.001 -35.499s-4.33398 -24.5 -5.00098 -36.5v-256h-50v250v6v744h50v-599c8 10 16 18.667 24 26c23.333 24 49.666 42 78.999 54
c29.333 12.667 61.666 19 96.999 19c34.667 0 67 -6.33301 97 -19c28.667 -12 55 -30 79 -54c24.667 -23.333 42.667 -50 54 -80c12 -28.667 18.667 -60.667 20 -96v-1v-250z" />
    <glyph glyph-name="i" unicode="i" horiz-adv-x="100" 
d="M75 500v-500h-50v500h50zM50 600c-6.66699 0 -12.5 2.5 -17.5 7.5s-7.5 10.833 -7.5 17.5c0 7.33301 2.5 13.333 7.5 18s10.833 7 17.5 7c7.33301 0 13.333 -2.33301 18 -7s7 -10.667 7 -18c0 -6.66699 -2.33301 -12.5 -7 -17.5s-10.667 -7.5 -18 -7.5z" />
    <glyph glyph-name="j" unicode="j" horiz-adv-x="552" 
d="M527 -251c0 -16.667 -1.83887 -33 -5.50586 -49s-8.5 -32 -14.5 -48c-5.33301 -14.667 -12.666 -28.667 -21.999 -42s-19.666 -25.666 -30.999 -36.999s-23.666 -21.666 -36.999 -30.999s-27.666 -17 -42.999 -23c-30 -12.667 -63.333 -19 -100 -19
c-34 0 -66 6.33301 -96 19c-15.333 6 -29.666 13.667 -42.999 23s-25.666 19.666 -36.999 30.999s-21.666 23.666 -30.999 36.999s-16.666 27.333 -21.999 42c-13.333 30.667 -20 63 -20 97c0 37.333 6.66699 70.666 20 99.999c5.33301 14.667 12.666 28.834 21.999 42.501
s19.666 26.167 30.999 37.5l35 -36c-8 -8.66699 -15.667 -18.667 -23 -30s-13.666 -22.666 -18.999 -33.999c-10 -25.333 -15 -52 -15 -80c0 -26.667 5 -52 15 -76c5.33301 -12.667 11.666 -24.334 18.999 -35.001s15 -20.667 23 -30
c9.33301 -9.33301 19.333 -17.333 30 -24s22.334 -12.667 35.001 -18c24 -10 49.333 -15 76 -15c28 0 54.667 5 80 15c11.333 5.33301 22.666 11.333 33.999 18s21.333 14.667 30 24c18 19.333 32.333 41 43 65c10 24 15 49 15 75v752h51v-751zM500.994 599
c-6.66699 0 -12.5 2.5 -17.5 7.5s-7.5 11.167 -7.5 18.5s2.5 13.333 7.5 18s10.833 7 17.5 7c7.33301 0 13.333 -2.33301 18 -7s7 -10.667 7 -18s-2.33301 -13.5 -7 -18.5s-10.667 -7.5 -18 -7.5z" />
    <glyph glyph-name="k" unicode="k" horiz-adv-x="543" 
d="M505 97c13.333 -30.667 20.001 -63.002 20.001 -97.002h-51c0 28 -5.33301 54 -16 78c-10 24 -24 45 -42 63c-9.33301 9.33301 -19.333 17.333 -30 24s-21.667 12.667 -33 18c-12.667 6 -25.5 10.167 -38.5 12.5s-26.167 3.5 -39.5 3.5s-26.666 -1.16699 -39.999 -3.5
s-26 -6.5 -38 -12.5c-12 -5.33301 -23.167 -11.333 -33.5 -18s-20.166 -14.667 -29.499 -24c-18.667 -17.333 -33 -38.333 -43 -63c-9.33301 -22 -14.666 -46.333 -15.999 -73v-5h-50v5v495h50v-320l408 320l32 -40l-272 -212c5.33301 0.666992 10.666 1.16699 15.999 1.5
s10.666 0.5 15.999 0.5c32.667 0 65 -6.66699 97 -20c14.667 -6 28.667 -13.5 42 -22.5s25.666 -19.167 36.999 -30.5s21.666 -23.666 30.999 -36.999s17 -27.666 23 -42.999z" />
    <glyph glyph-name="l" unicode="l" horiz-adv-x="300" 
d="M197 66c26.667 -10.667 52.667 -16 78 -16v-50c-35.333 0 -67.666 6.66699 -96.999 20c-30 12 -56.667 29.667 -80 53s-41 50 -53 80c-7.33301 15.333 -12.333 30.833 -15 46.5s-4.33398 32.167 -5.00098 49.5v751h50v-750c0 -25.333 5.33301 -51.333 16 -78
c10 -23.333 24.333 -44.333 43 -63s39.667 -33 63 -43z" />
    <glyph glyph-name="m" unicode="m" horiz-adv-x="997" 
d="M972 0l-51.001 0.00195312v251c0 26.667 -5 52 -15 76c-5.33301 12 -11.5 23.333 -18.5 34s-15.167 20.667 -24.5 30s-19.166 17.5 -29.499 24.5s-21.5 13.167 -33.5 18.5c-25.333 10 -51.333 15 -78 15c-27.333 0 -53 -5 -77 -15c-23.333 -10 -44.333 -24.333 -63 -43
c-9.33301 -9.33301 -17.5 -19.333 -24.5 -30s-13.167 -22 -18.5 -34c-10 -24 -15 -49.333 -15 -76v-251h-51v251c0 27.333 -5.33301 52.666 -16 75.999c-10 23.333 -24 44.666 -42 63.999c-20 19.333 -41 33.666 -63 42.999c-25.333 10 -51.333 15 -78 15
c-27.333 0 -53 -5 -77 -15c-22.667 -9.33301 -43.667 -23.666 -63 -42.999c-9.33301 -9.33301 -17.5 -19.333 -24.5 -30s-13.167 -22 -18.5 -34c-10 -22 -15 -45.667 -15 -71v-256h-51v251v5v244h51v-100c5.33301 9.33301 12.666 18 21.999 26
c23.333 23.333 49.666 41.333 78.999 54c32 13.333 64.333 20 97 20c33.333 0 66 -6.66699 98 -20c14.667 -6.66699 28.5 -14.5 41.5 -23.5s25.167 -19.167 36.5 -30.5c19.333 -18.667 35.333 -41 48 -67c12 24.667 28 47 48 67c22.667 22.667 49.334 40.667 80.001 54
s62.667 20 96 20c34 0 66.333 -6.66699 97 -20s57.334 -31.333 80.001 -54c23.333 -23.333 41 -49.333 53 -78c6.66699 -16 11.667 -31.833 15 -47.5s5 -32.167 5 -49.5v-251z" />
    <glyph glyph-name="n" unicode="n" horiz-adv-x="549" 
d="M524 0l-49.999 -0.000976562v250c0 26 -5.33301 51.667 -16 77c-5.33301 12 -11.5 23.333 -18.5 34s-15.167 20.667 -24.5 30c-18.667 18.667 -40 33 -64 43s-49.333 15 -76 15c-28.667 0 -54.334 -5 -77.001 -15c-25.333 -10.667 -46.666 -25 -63.999 -43
c-18 -17.333 -32.333 -38.666 -43 -63.999c-4.66699 -11.333 -8.33398 -23 -11.001 -35s-4.33398 -24.333 -5.00098 -37v-255h-50v250v5v245h50v-99l11.5 13l11.5 12c12 11.333 24.5 21.666 37.5 30.999s27.167 17 42.5 23c32 13.333 64.333 20 97 20
c32 0 64 -6.66699 96 -20c15.333 -6 29.5 -13.667 42.5 -23s25.5 -19.666 37.5 -30.999c22 -22 39.667 -48.333 53 -79c7.33301 -15.333 12.333 -31 15 -47s4.33398 -32.333 5.00098 -49v-1v-250z" />
    <glyph glyph-name="o" unicode="o" 
d="M275 500c34.667 0 67.167 -6.5 97.5 -19.5s56.833 -30.833 79.5 -53.5s40.667 -49.167 54 -79.5s20 -62.833 20 -97.5s-6.66699 -67.167 -20 -97.5s-31.333 -56.833 -54 -79.5s-49.167 -40.5 -79.5 -53.5s-62.833 -19.5 -97.5 -19.5s-67.167 6.5 -97.5 19.5
s-56.833 30.833 -79.5 53.5s-40.5 49.167 -53.5 79.5s-19.5 62.833 -19.5 97.5s6.5 67.167 19.5 97.5s30.833 56.833 53.5 79.5s49.167 40.5 79.5 53.5s62.833 19.5 97.5 19.5zM417 109c18 19.333 32 40.667 42 64c10.667 26.667 16 52.334 16 77.001
c0 26 -5.33301 51.667 -16 77c-5.33301 12.667 -11.5 24.167 -18.5 34.5s-14.833 20.166 -23.5 29.499c-9.33301 9.33301 -19.333 17.5 -30 24.5s-22.334 13.167 -35.001 18.5c-24 10 -49.667 15 -77 15c-26.667 0 -52.334 -5 -77.001 -15c-24 -10 -45.333 -24.333 -64 -43
c-9.33301 -9.33301 -17.5 -19.166 -24.5 -29.499s-13.167 -21.833 -18.5 -34.5c-10 -24 -15 -49.667 -15 -77c0 -26.667 5 -52.334 15 -77.001c10 -24 24.333 -45.333 43 -64s40 -33 64 -43c24.667 -10 50.334 -15 77.001 -15c27.333 0 53 5 77 15
c12.667 5.33301 24.334 11.5 35.001 18.5s20.667 15.167 30 24.5z" />
    <glyph glyph-name="p" unicode="p" 
d="M275 500c34.667 0 67.165 -6.5 97.498 -19.5s56.833 -30.833 79.5 -53.5s40.5 -49.167 53.5 -79.5s19.5 -62.833 19.5 -97.5s-6.5 -67.167 -19.5 -97.5s-30.833 -56.833 -53.5 -79.5s-49.167 -40.5 -79.5 -53.5s-62.833 -19.5 -97.5 -19.5
c-41.333 0 -79.166 9.16699 -113.499 27.5s-63.166 42.5 -86.499 72.5v-600h-50v750c0 34.667 6.5 67.167 19.5 97.5s30.833 56.833 53.5 79.5s49.167 40.5 79.5 53.5s62.833 19.5 97.5 19.5zM416.998 108c17.333 20.667 31.334 41.999 42.001 63.999
c5.33301 13.333 9.33301 26.333 12 39s4 25.667 4 39c0 25.333 -5.33301 51.333 -16 78c-11.333 24 -25.333 45 -42 63c-18.667 18.667 -40 33 -64 43c-26.667 10.667 -52.667 16 -78 16s-51.333 -5.33301 -78 -16c-11.333 -5.33301 -22.333 -11.5 -33 -18.5
s-20.667 -15.167 -30 -24.5s-17.5 -19.166 -24.5 -29.499s-13.167 -21.5 -18.5 -33.5c-10.667 -26.667 -16 -52.667 -16 -78c0 -13.333 1.33301 -26.333 4 -39s6.66699 -25.667 12 -39c5.33301 -11.333 11.5 -22.333 18.5 -33s15.167 -21 24.5 -31
c9.33301 -8.66699 19.333 -16.5 30 -23.5s21.667 -13.167 33 -18.5c24.667 -10 50.667 -15 78 -15c26.667 0 52.667 5 78 15c23.333 10.667 44.666 24.667 63.999 42z" />
    <glyph glyph-name="q" unicode="q" 
d="M525 243l-0.00195312 -743h-50v599c-23.333 -30 -52.166 -54 -86.499 -72s-72.166 -27 -113.499 -27c-34.667 0 -67.167 6.5 -97.5 19.5s-56.833 30.833 -79.5 53.5s-40.5 49.167 -53.5 79.5s-19.5 62.5 -19.5 96.5c0 34.667 6.5 67.334 19.5 98.001
s30.833 57.334 53.5 80.001s49.167 40.5 79.5 53.5s62.833 19.5 97.5 19.5s67.167 -6.5 97.5 -19.5s56.833 -30.833 79.5 -53.5s40.5 -49.334 53.5 -80.001s19.5 -63.334 19.5 -98.001v-6zM458.998 172c10.667 22 16.001 46.001 16.001 72.001v5
c0 28.667 -5.33301 55 -16 79c-5.33301 12 -11.5 23.167 -18.5 33.5s-14.833 20.166 -23.5 29.499c-18.667 18.667 -40 33 -64 43c-26.667 10.667 -52.667 16 -78 16c-13.333 0 -26.333 -1.33301 -39 -4s-25.667 -6.66699 -39 -12c-23.333 -10 -44.333 -24.333 -63 -43
c-8.66699 -9.33301 -16.667 -19.166 -24 -29.499s-13.666 -21.5 -18.999 -33.5c-5.33301 -12.667 -9.33301 -25.5 -12 -38.5s-4 -26.5 -4 -40.5c0 -24.667 5.33301 -50.334 16 -77.001c5.33301 -11.333 11.666 -22.5 18.999 -33.5s15.333 -21.167 24 -30.5
c19.333 -18 40.333 -32 63 -42c25.333 -10.667 51.333 -16 78 -16c28 0 54 5.33301 78 16c23.333 10 44.666 24 63.999 42c8.66699 9.33301 16.5 19.5 23.5 30.5s13.167 22.167 18.5 33.5z" />
    <glyph glyph-name="r" unicode="r" horiz-adv-x="476" 
d="M372 481c29.333 -12.667 55.666 -30.6689 78.999 -54.002l-36 -36c-17.333 18.667 -38.333 33 -63 43c-25.333 10.667 -51 16 -77 16c-13.333 0 -26.5 -1.33301 -39.5 -4s-25.833 -6.33398 -38.5 -11.001c-11.333 -5.33301 -22.333 -11.666 -33 -18.999
s-20.667 -15.666 -30 -24.999s-17.5 -19.166 -24.5 -29.499s-13.167 -21.5 -18.5 -33.5c-9.33301 -22 -14.666 -46.333 -15.999 -73v-255h-50v250v6v244h50v-99c8 10 16 18.667 24 26c11.333 11.333 23.5 21.5 36.5 30.5s26.833 16.833 41.5 23.5c31.333 12.667 64 19 98 19
c34.667 0 67 -6.33301 97 -19z" />
    <glyph glyph-name="s" unicode="s" 
d="M525 250c0 -34.667 -6.33301 -67.0029 -19 -97.0029c-6.66699 -15.333 -14.334 -29.666 -23.001 -42.999s-18.667 -25.666 -30 -36.999c-24.667 -23.333 -51.334 -41.333 -80.001 -54c-31.333 -12.667 -64 -19 -98 -19c-34.667 0 -67 6.33301 -97 19
s-56.667 30.667 -80 54l36 36c19.333 -19.333 40.666 -33.666 63.999 -42.999c25.333 -10.667 51 -16 77 -16s51.667 5.33301 77 16c12.667 5.33301 24.167 11.5 34.5 18.5s20.166 15.167 29.499 24.5c19.333 19.333 33.666 40.666 42.999 63.999
c7.33301 16.667 12 33.667 14 51h-448v26c0 34.667 6.33301 67 19 97s30.667 56.667 54 80s50 41.333 80 54s62.333 19 97 19c34 0 66.667 -6.33301 98 -19c28.667 -12.667 55.334 -30.667 80.001 -54l-37 -36c-9.33301 9.33301 -19.166 17.5 -29.499 24.5
s-21.833 13.167 -34.5 18.5c-25.333 10.667 -51 16 -77 16s-51.667 -5.33301 -77 -16c-23.333 -9.33301 -44.666 -23.666 -63.999 -42.999c-9.33301 -9.33301 -17.5 -19.166 -24.5 -29.499s-13.167 -21.833 -18.5 -34.5c-3.33301 -8 -6.16602 -16.333 -8.49902 -25
s-4.16602 -17.334 -5.49902 -26.001h448v-26v0z" />
    <glyph glyph-name="t" unicode="t" horiz-adv-x="402" 
d="M299 66c25.333 -10.667 51.334 -16.002 78.001 -16.002v-50c-33.333 0 -66 6.66699 -98 20c-15.333 6.66699 -29.5 14.334 -42.5 23.001s-25.5 19 -37.5 31c-22 22 -39.667 48.333 -53 79s-20 62.667 -20 96v475h-101v51h101v225h51v-225h98v-51h-98v-475
c0 -27.333 5.33301 -52.666 16 -75.999c4.66699 -12 10.5 -23.333 17.5 -34s15.167 -20.667 24.5 -30s19.166 -17.5 29.499 -24.5s21.833 -13.167 34.5 -18.5z" />
    <glyph glyph-name="u" unicode="u" horiz-adv-x="549" 
d="M524 249c-0.666992 -16.667 -2.33301 -32.999 -5 -48.999s-7.66699 -31.667 -15 -47c-6 -15.333 -13.667 -29.5 -23 -42.5s-19.666 -25.5 -30.999 -37.5c-11.333 -11.333 -23.5 -21.5 -36.5 -30.5s-27.167 -16.5 -42.5 -22.5c-29.333 -13.333 -61.333 -20 -96 -20
c-17.333 0 -34 1.5 -50 4.5s-31.667 8.16699 -47 15.5c-15.333 6 -29.5 13.5 -42.5 22.5s-25.5 19.167 -37.5 30.5c-11.333 12 -21.5 24.5 -30.5 37.5s-16.5 27.167 -22.5 42.5c-13.333 29.333 -20 61.666 -20 96.999v250h51v-250c0 -26 5 -52 15 -78
c9.33301 -22 23.666 -43 42.999 -63c19.333 -19.333 40.333 -33.333 63 -42c24 -10.667 50 -16 78 -16c26 0 51.667 5.33301 77 16c11.333 4.66699 22.333 10.5 33 17.5s20.667 15.167 30 24.5s17.5 19.333 24.5 30s12.833 21.667 17.5 33c10.667 24 16 50 16 78v250h51
v-250v-1z" />
    <glyph glyph-name="v" unicode="v" horiz-adv-x="551" 
d="M526 247c-1.33301 -34 -7.66602 -65.668 -18.999 -95.001c-6.66699 -14.667 -14.5 -28.667 -23.5 -42s-19.5 -25.666 -31.5 -36.999c-22 -23.333 -48.333 -41 -79 -53c-30.667 -13.333 -62.667 -20 -96 -20h-225h-27v500h50v-450h201c28 0 54 5.33301 78 16
c24.667 10 45.667 24.333 63 43c19.333 19.333 33.666 40.333 42.999 63c10 24 15 49.667 15 77v251h51v-251v-2z" />
    <glyph glyph-name="w" unicode="w" horiz-adv-x="997" 
d="M972 249c0 -34.667 -6.33301 -66.999 -19 -96.999c-13.333 -30 -31.333 -56.333 -54 -79c-11.333 -11.333 -23.5 -21.5 -36.5 -30.5s-27.167 -16.5 -42.5 -22.5c-32 -13.333 -64.333 -20 -97 -20s-65 6.66699 -97 20c-15.333 6 -29.5 13.5 -42.5 22.5
s-25.167 19.167 -36.5 30.5c-10 10 -19.167 20.5 -27.5 31.5s-15.5 22.833 -21.5 35.5c-10.667 -24 -26.334 -46.333 -47.001 -67c-11.333 -11.333 -23.666 -21.5 -36.999 -30.5s-27.333 -16.5 -42 -22.5c-32.667 -13.333 -65 -20 -97 -20c-33.333 0 -66 6.66699 -98 20
c-15.333 6 -29.5 13.5 -42.5 22.5s-25.167 19.167 -36.5 30.5c-23.333 23.333 -41 49.666 -53 78.999c-13.333 32 -20 64.667 -20 98v250h51v-252c0 -26.667 5 -52 15 -76c5.33301 -12 11.5 -23.333 18.5 -34s14.833 -20.667 23.5 -30c18 -17.333 39.333 -31 64 -41
c23.333 -10.667 49.333 -16 78 -16c27.333 0 53 5.33301 77 16s45 24.334 63 41.001c18.667 18.667 33 40 43 64c10.667 23.333 16 49.333 16 78v250h50v-250c0 -27.333 5 -53.333 15 -78c5.33301 -12 11.5 -23.333 18.5 -34s15.167 -20.667 24.5 -30
c20 -18 41.333 -31.667 64 -41c24 -10.667 49.667 -16 77 -16c28 0 53.667 5.33301 77 16c24.667 10 46 23.667 64 41c18 19.333 32 40.666 42 63.999c10.667 23.333 16 49.333 16 78v250h50v-250v-1z" />
    <glyph glyph-name="x" unicode="x" horiz-adv-x="541" 
d="M375 391c-9.33301 -9.33301 -17.502 -19.333 -24.502 -30s-13.167 -22 -18.5 -34c-5.33301 -12.667 -9.33301 -25.334 -12 -38.001s-4 -25.667 -4 -39s1.33301 -26.333 4 -39s6.66699 -25.334 12 -38.001c5.33301 -12 11.5 -23.333 18.5 -34s15.167 -20.667 24.5 -30
s19.333 -17.5 30 -24.5s22 -13.167 34 -18.5c24.667 -10 50.334 -15 77.001 -15v-51c-16.667 0 -33.167 1.5 -49.5 4.5s-32.166 8.16699 -47.499 15.5c-15.333 6 -29.666 13.667 -42.999 23s-25.666 19.666 -36.999 30.999c-23.333 23.333 -41.333 49.666 -54 78.999
c-6 16.667 -10.667 33.667 -14 51c-3.33301 -18.667 -8.33301 -35.667 -15 -51c-12.667 -29.333 -30.667 -55.666 -54 -78.999c-11.333 -11.333 -23.666 -21.666 -36.999 -30.999s-27.666 -17 -42.999 -23c-15.333 -7.33301 -31 -12.5 -47 -15.5s-32.667 -4.5 -50 -4.5v51
c26.667 0 52.667 5 78 15c23.333 10 44.333 24.333 63 43s33 40 43 64c5.33301 12.667 9.33301 25.334 12 38.001s4 25.667 4 39s-1.33301 26.333 -4 39s-6.66699 25.334 -12 38.001c-10 24 -24.333 45.333 -43 64s-39.667 33 -63 43c-26.667 10.667 -52.667 16 -78 16v50
c17.333 0 34 -1.5 50 -4.5s31.667 -8.16699 47 -15.5c30 -12 56.667 -29.667 80 -53c22.667 -22.667 40.667 -49 54 -79c7.33301 -17.333 12.333 -34.666 15 -51.999c1.33301 9.33301 3.16602 18.166 5.49902 26.499s5.16602 16.833 8.49902 25.5
c13.333 30 31.333 56.333 54 79c23.333 23.333 50 41 80 53c15.333 7.33301 31.166 12.5 47.499 15.5s32.833 4.5 49.5 4.5v-50c-13.333 0 -26.333 -1.33301 -39 -4s-25.334 -6.66699 -38.001 -12c-12 -5.33301 -23.333 -11.5 -34 -18.5s-20.667 -15.167 -30 -24.5z" />
    <glyph glyph-name="y" unicode="y" horiz-adv-x="549" 
d="M458 171c10.667 25.333 16.001 49.6689 16.001 73.002v-145c-6 -8.66699 -13.333 -17.334 -22 -26.001c-22.667 -22.667 -49.334 -40.667 -80.001 -54c-30 -12.667 -62.333 -19 -97 -19c-35.333 0 -67.666 6.33301 -96.999 19c-28.667 12.667 -55.334 30.667 -80.001 54
c-11.333 11.333 -21.333 23.666 -30 36.999s-16.667 27.333 -24 42c-12.667 31.333 -19 63.333 -19 96h51v2c0 -28 5 -54.333 15 -79c5.33301 -11.333 11.333 -22.333 18 -33s14.667 -20.667 24 -30s19.5 -17.5 30.5 -24.5s22.5 -13.167 34.5 -18.5
c24 -10 49.667 -15 77 -15s53 5 77 15c12 5.33301 23.333 11.5 34 18.5s20.667 15.167 30 24.5s17.333 19.333 24 30s12.667 21.667 18 33zM525.001 250.003c0 -1.33301 -0.166992 -2.33301 -0.5 -3s-0.5 -1.66699 -0.5 -3v6h1zM524.001 244.003v-744h-50v599v145v256h50
v-250v-6zM76.001 248.003h-51v2v250h51v-250v-2z" />
    <glyph glyph-name="z" unicode="z" horiz-adv-x="548" 
d="M524 51v-51h-499v26c0 32.667 6.66699 65 20 97c13.333 29.333 31 55.666 53 78.999c22.667 22.667 49 40.667 79 54c30 12.667 62.333 19 97 19c25.333 0 51.333 5.33301 78 16c24.667 10 45.667 24.333 63 43c18 18 32 39 42 63c8 16 13 33.333 15 52h-447v51h498v-25
v-5c0 -32.667 -6.33301 -63.667 -19 -93c-13.333 -30 -31.333 -56.333 -54 -79c-11.333 -11.333 -23.5 -21.5 -36.5 -30.5s-26.833 -16.833 -41.5 -23.5c-32 -13.333 -64.667 -20 -98 -20c-27.333 0 -53 -5 -77 -15c-24.667 -10 -45.667 -24.333 -63 -43
c-9.33301 -9.33301 -17.5 -19.166 -24.5 -29.499s-13.167 -21.5 -18.5 -33.5c-7.33301 -18 -12 -35.333 -14 -52h447z" />
    <glyph glyph-name="exclamdown" unicode="&#xa1;" horiz-adv-x="101" 
d="M76 912v-912h-51v912h51zM25 974c0 7.33301 2.33301 13.5 7 18.5s10.667 7.5 18 7.5s13.5 -2.5 18.5 -7.5s7.5 -11.167 7.5 -18.5s-2.5 -13.333 -7.5 -18s-11.167 -7 -18.5 -7c-16.667 0 -25 8.33301 -25 25z" />
    <glyph glyph-name="acute" unicode="&#xb4;" horiz-adv-x="833" 
d="M311 572l-36 35l71 72l36 -35z" />
    <glyph glyph-name="questiondown" unicode="&#xbf;" 
d="M525 250c0 -34.667 -6.66992 -67.3359 -20.0029 -98.0029c-6 -14.667 -13.5 -28.667 -22.5 -42s-19.167 -25.666 -30.5 -36.999s-23.666 -21.333 -36.999 -30s-27.666 -16.334 -42.999 -23.001c-30.667 -13.333 -63 -20 -97 -20c-33.333 0 -66 6.66699 -98 20
c-30.667 13.333 -57 31 -79 53c-11.333 11.333 -21.333 23.666 -30 36.999s-16.334 27.333 -23.001 42c-13.333 32 -20 64.667 -20 98v30c0.666992 31.333 7.33398 62.333 20.001 93c13.333 30 31 56.667 53 80c11.333 11.333 23.5 21.5 36.5 30.5s27.167 16.167 42.5 21.5
c32 13.333 64.667 20 98 20c12.667 0 25.5 1.16699 38.5 3.5s25.833 6.5 38.5 12.5c11.333 5.33301 22.333 11.333 33 18s20.667 14.667 30 24c18.667 18.667 33 40 43 64s15 50 15 78v185h51v-187c0 -33.333 -6.66699 -65.333 -20 -96c-6 -15.333 -13.667 -29.5 -23 -42.5
s-19.666 -25.5 -30.999 -37.5c-22.667 -23.333 -49 -40.666 -79 -51.999c-30.667 -13.333 -62.667 -20 -96 -20c-28 0 -53.667 -5.33301 -77 -16c-12.667 -5.33301 -24.167 -11.333 -34.5 -18s-20.166 -14.667 -29.499 -24c-18 -17.333 -32.333 -38.666 -43 -63.999
s-16 -51.333 -16 -78v-25c0 -26 5.33301 -51.667 16 -77s25 -46.666 43 -63.999c19.333 -19.333 40.666 -33.666 63.999 -42.999c25.333 -10.667 51 -16 77 -16c25.333 0 51.333 5.33301 78 16c12 5.33301 23.333 11.5 34 18.5s20.667 15.167 30 24.5s17.333 19.333 24 30
s12.667 22 18 34c10 24 15 49.667 15 77h51zM498.997 949.998c-7.33301 0 -13.333 2.33301 -18 7s-7 10.667 -7 18s2.33301 13.333 7 18s10.667 7 18 7s13.5 -2.33301 18.5 -7s7.5 -10.667 7.5 -18s-2.5 -13.333 -7.5 -18s-11.167 -7 -18.5 -7z" />
    <glyph glyph-name="Ntilde" unicode="&#xd1;" horiz-adv-x="549" 
d="M400 1098h-251v50h251v-50zM524 0l-49.998 0.000976562v750c0 25.333 -5.33301 51.333 -16 78c-10 23.333 -24.333 44.333 -43 63c-9.33301 9.33301 -19.333 17.5 -30 24.5s-21.667 13.167 -33 18.5c-26.667 10.667 -52.334 16 -77.001 16
c-26 0 -51.667 -5.33301 -77 -16s-46.666 -25 -63.999 -43c-9.33301 -9.33301 -17.5 -19.333 -24.5 -30s-13.167 -21.667 -18.5 -33c-9.33301 -22 -14.666 -46.333 -15.999 -73v-755h-50v750v5v12c1.33301 14 3.66602 27.667 6.99902 41s7.66602 26.333 12.999 39
c12 30 29.667 56.667 53 80c22.667 22.667 49.334 40.667 80.001 54c29.333 12.667 61.666 19 96.999 19c33.333 0 65.666 -6.33301 96.999 -19c30 -13.333 56.333 -31.333 79 -54s40.667 -49.334 54 -80.001c12.667 -29.333 19 -61.333 19 -96v-1v-750z" />
    <glyph glyph-name="aacute" unicode="&#xe1;" 
d="M311 572l-36 35l71 72l36 -35zM525 243l-0.000976562 -243h-51v100c-22.667 -30 -51.167 -54.167 -85.5 -72.5s-72.166 -27.5 -113.499 -27.5c-34.667 0 -67.167 6.5 -97.5 19.5s-56.833 30.833 -79.5 53.5s-40.5 49.167 -53.5 79.5s-19.5 62.833 -19.5 97.5
s6.5 67.167 19.5 97.5s30.833 56.833 53.5 79.5s49.167 40.5 79.5 53.5s62.833 19.5 97.5 19.5s67.167 -6.5 97.5 -19.5s56.833 -30.833 79.5 -53.5s40.5 -49.167 53.5 -79.5s19.5 -62.833 19.5 -97.5v-7zM458.999 172c4.66699 11.333 8.33496 23.001 11.002 35.001
s4 24.333 4 37v6c0 26.667 -5 52.667 -15 78c-5.33301 12 -11.5 23.333 -18.5 34s-15.167 20 -24.5 28c-8.66699 9.33301 -18.334 17.666 -29.001 24.999s-22 13.666 -34 18.999c-25.333 10 -51.333 15 -78 15c-27.333 0 -53.333 -5 -78 -15
c-25.333 -11.333 -46.333 -26 -63 -44c-9.33301 -8 -17.5 -17.333 -24.5 -28s-13.167 -22 -18.5 -34c-10 -25.333 -15 -51.333 -15 -78c0 -27.333 5 -53.333 15 -78c11.333 -24.667 25.666 -45.667 42.999 -63s38.333 -31.666 63 -42.999
c12.667 -5.33301 25.5 -9.16602 38.5 -11.499s26.167 -3.5 39.5 -3.5s26.5 1.16699 39.5 3.5s25.833 6.16602 38.5 11.499c12 5.33301 23.333 11.5 34 18.5s20.334 15.167 29.001 24.5c17.333 17.333 31.666 38.333 42.999 63z" />
    <glyph glyph-name="eacute" unicode="&#xe9;" horiz-adv-x="547" 
d="M310 569l-37 36l70 72l37 -36zM498 223l-420.998 0.000976562c1.33301 -8.66699 3 -17.334 5 -26.001s4.66699 -17 8 -25c5.33301 -12 11.5 -23.333 18.5 -34s15.167 -20.667 24.5 -30s19.333 -17.5 30 -24.5s22 -13.167 34 -18.5c24 -10 49.667 -15 77 -15
s53.666 5 78.999 15c22 9.33301 43 23.666 63 42.999l36 -36c-23.333 -22.667 -50 -40.334 -80 -53.001s-62.667 -19 -98 -19c-34.667 0 -67 6.33301 -97 19s-56.667 30.334 -80 53.001c-22.667 23.333 -40.334 50 -53.001 80s-19 62.333 -19 97c0 35.333 6.33301 68 19 98
s30.334 56.667 53.001 80c23.333 22.667 50 40.334 80 53.001c32 13.333 64.333 20 97 20c33.333 0 66 -6.66699 98 -20c15.333 -6.66699 29.666 -14.334 42.999 -23.001s25.666 -18.667 36.999 -30c22.667 -23.333 40.334 -50 53.001 -80
c13.333 -30.667 20 -63.334 20 -98.001c0 -5.33301 -0.166992 -9.66602 -0.5 -12.999s-0.5 -7.66602 -0.5 -12.999h-26zM133.002 391.001c-19.333 -20 -33.667 -40.999 -43 -62.999c-3.33301 -8.66699 -6 -17.334 -8 -26.001s-3.66699 -17.667 -5 -27h396
c-2 17.333 -6.66699 35 -14 53c-10 23.333 -24.333 44.333 -43 63s-39.667 33 -63 43c-24 10 -50.333 15 -79 15c-27.333 0 -53 -5 -77 -15s-45.333 -24.333 -64 -43z" />
    <glyph glyph-name="iacute" unicode="&#xed;" horiz-adv-x="105" 
d="M25 0v500h55v-500h-55zM141 643l-77 -72l-39 36l77 71z" />
    <glyph glyph-name="ntilde" unicode="&#xf1;" horiz-adv-x="549" 
d="M399 598h-251v50h251v-50zM524 0l-49.999 -0.000976562v250c0 26 -5.33301 51.667 -16 77c-5.33301 12 -11.5 23.333 -18.5 34s-15.167 20.667 -24.5 30c-18.667 18.667 -40 33 -64 43s-49.333 15 -76 15c-28.667 0 -54.334 -5 -77.001 -15
c-25.333 -10.667 -46.666 -25 -63.999 -43c-18 -17.333 -32.333 -38.666 -43 -63.999c-4.66699 -11.333 -8.33398 -23 -11.001 -35s-4.33398 -24.333 -5.00098 -37v-255h-50v250v5v245h50v-99l11.5 13l11.5 12c12 11.333 24.5 21.666 37.5 30.999s27.167 17 42.5 23
c32 13.333 64.333 20 97 20c32 0 64 -6.66699 96 -20c15.333 -6 29.5 -13.667 42.5 -23s25.5 -19.666 37.5 -30.999c22 -22 39.667 -48.333 53 -79c7.33301 -15.333 12.333 -31 15 -47s4.33398 -32.333 5.00098 -49v-1v-250z" />
    <glyph glyph-name="oacute" unicode="&#xf3;" 
d="M312 572l-36 36l72 71l36 -35zM275 500c34.667 0 67.167 -6.5 97.5 -19.5s56.833 -30.833 79.5 -53.5s40.667 -49.167 54 -79.5s20 -62.833 20 -97.5s-6.66699 -67.167 -20 -97.5s-31.333 -56.833 -54 -79.5s-49.167 -40.5 -79.5 -53.5s-62.833 -19.5 -97.5 -19.5
s-67.167 6.5 -97.5 19.5s-56.833 30.833 -79.5 53.5s-40.5 49.167 -53.5 79.5s-19.5 62.833 -19.5 97.5s6.5 67.167 19.5 97.5s30.833 56.833 53.5 79.5s49.167 40.5 79.5 53.5s62.833 19.5 97.5 19.5zM417 109c18 19.333 32 40.667 42 64
c10.667 26.667 16 52.334 16 77.001c0 26 -5.33301 51.667 -16 77c-5.33301 12.667 -11.5 24.167 -18.5 34.5s-14.833 20.166 -23.5 29.499c-9.33301 9.33301 -19.333 17.5 -30 24.5s-22.334 13.167 -35.001 18.5c-24 10 -49.667 15 -77 15
c-26.667 0 -52.334 -5 -77.001 -15c-24 -10 -45.333 -24.333 -64 -43c-9.33301 -9.33301 -17.5 -19.166 -24.5 -29.499s-13.167 -21.833 -18.5 -34.5c-10 -24 -15 -49.667 -15 -77c0 -26.667 5 -52.334 15 -77.001c10 -24 24.333 -45.333 43 -64s40 -33 64 -43
c24.667 -10 50.334 -15 77.001 -15c27.333 0 53 5 77 15c12.667 5.33301 24.334 11.5 35.001 18.5s20.667 15.167 30 24.5z" />
    <glyph glyph-name="divide" unicode="&#xf7;" horiz-adv-x="439" 
d="M414 276v-51h-389v51h389zM194 376c0 7.33301 2.5 13.333 7.5 18s10.833 7 17.5 7c7.33301 0 13.5 -2.33301 18.5 -7s7.5 -10.667 7.5 -18s-2.5 -13.5 -7.5 -18.5s-11.167 -7.5 -18.5 -7.5c-6.66699 0 -12.5 2.5 -17.5 7.5s-7.5 11.167 -7.5 18.5zM197 125
c0 7.33301 2.5 13.5 7.5 18.5s10.833 7.5 17.5 7.5c7.33301 0 13.5 -2.5 18.5 -7.5s7.5 -11.167 7.5 -18.5s-2.5 -13.333 -7.5 -18s-11.167 -7 -18.5 -7c-6.66699 0 -12.5 2.33301 -17.5 7s-7.5 10.667 -7.5 18z" />
    <glyph glyph-name="uacute" unicode="&#xfa;" horiz-adv-x="549" 
d="M310 570l-37 35l72 71l35 -35zM524 249c-0.666992 -16.667 -2.33301 -32.999 -5 -48.999s-7.66699 -31.667 -15 -47c-6 -15.333 -13.667 -29.5 -23 -42.5s-19.666 -25.5 -30.999 -37.5c-11.333 -11.333 -23.5 -21.5 -36.5 -30.5s-27.167 -16.5 -42.5 -22.5
c-29.333 -13.333 -61.333 -20 -96 -20c-17.333 0 -34 1.5 -50 4.5s-31.667 8.16699 -47 15.5c-15.333 6 -29.5 13.5 -42.5 22.5s-25.5 19.167 -37.5 30.5c-11.333 12 -21.5 24.5 -30.5 37.5s-16.5 27.167 -22.5 42.5c-13.333 29.333 -20 61.666 -20 96.999v250h51v-250
c0 -26 5 -52 15 -78c9.33301 -22 23.666 -43 42.999 -63c19.333 -19.333 40.333 -33.333 63 -42c24 -10.667 50 -16 78 -16c26 0 51.667 5.33301 77 16c11.333 4.66699 22.333 10.5 33 17.5s20.667 15.167 30 24.5s17.5 19.333 24.5 30s12.833 21.667 17.5 33
c10.667 24 16 50 16 78v250h51v-250v-1z" />
    <glyph glyph-name="ydieresis" unicode="&#xff;" horiz-adv-x="549" 
d="M458 171c10.667 25.333 16.001 49.6689 16.001 73.002v-145c-6 -8.66699 -13.333 -17.334 -22 -26.001c-22.667 -22.667 -49.334 -40.667 -80.001 -54c-30 -12.667 -62.333 -19 -97 -19c-35.333 0 -67.666 6.33301 -96.999 19c-28.667 12.667 -55.334 30.667 -80.001 54
c-11.333 11.333 -21.333 23.666 -30 36.999s-16.667 27.333 -24 42c-12.667 31.333 -19 63.333 -19 96h51v2c0 -28 5 -54.333 15 -79c5.33301 -11.333 11.333 -22.333 18 -33s14.667 -20.667 24 -30s19.5 -17.5 30.5 -24.5s22.5 -13.167 34.5 -18.5
c24 -10 49.667 -15 77 -15s53 5 77 15c12 5.33301 23.333 11.5 34 18.5s20.667 15.167 30 24.5s17.333 19.333 24 30s12.667 21.667 18 33zM525.001 250.003c0 -1.33301 -0.166992 -2.33301 -0.5 -3s-0.5 -1.66699 -0.5 -3v6h1zM524.001 244.003v-744h-50v599v145v256h50
v-250v-6zM76.001 248.003h-51v2v250h51v-250v-2z" />
    <glyph glyph-name="tilde" unicode="&#x2dc;" horiz-adv-x="833" 
 />
    <glyph glyph-name="endash" unicode="&#x2013;" horiz-adv-x="439" 
d="M414 276v-51h-389v51h389z" />
    <glyph glyph-name="quotedblleft" unicode="&#x201c;" horiz-adv-x="175" 
d="M74 903h-49v97h49v-97zM149 903h-49v97h49v-97z" />
    <glyph glyph-name="quotedblright" unicode="&#x201d;" horiz-adv-x="175" 
d="M74 903h-49v97h49v-97zM149 903h-49v97h49v-97z" />
    <glyph glyph-name="minus" unicode="&#x2212;" horiz-adv-x="439" 
d="M414 276v-51h-389v51h389z" />
    </font>
</defs>
</svg>
